<svg xmlns="http://www.w3.org/2000/svg" width="309" height="180" viewBox="0 0 309 180" fill="none" id="svg-1345633727_15311">
<g filter="url(#svg-1345633727_15311_filter0_d_14761_122)">
<rect x="26.957" y="20.9919" width="142.188" height="142.189" rx="21.175" transform="rotate(-7.63644 26.957 20.9919)" fill="white" shape-rendering="crispEdges"></rect>
<rect x="27.5609" y="21.453" width="141.114" height="141.114" rx="20.6378" transform="rotate(-7.63644 27.5609 21.453)" stroke="#EEEEEE" stroke-width="1.0744" shape-rendering="crispEdges"></rect>
<path d="M150.472 73.5781C148.324 62.4658 142.014 52.593 132.831 45.9764C123.649 39.3598 112.286 36.4987 101.065 37.9776L103.716 58.09C109.811 57.2867 115.984 58.8409 120.972 62.4351C125.96 66.0293 129.387 71.3924 130.554 77.4288L150.472 73.5781Z" fill="#FF9E69"></path>
<path d="M101.682 37.9008C90.4413 39.2226 80.1294 44.7861 72.8527 53.4548C65.5759 62.1236 61.8835 73.2436 62.5295 84.5432L82.7828 83.3852C82.4319 77.2471 84.4377 71.2066 88.3905 66.4976C92.3433 61.7885 97.9449 58.7663 104.051 58.0483L101.682 37.9008Z" fill="#FFD1A7"></path>
<path d="M63.3891 72.9589C62.0315 79.4819 62.1589 86.2268 63.762 92.6939C65.3651 99.161 68.4027 105.184 72.6499 110.318C76.8971 115.452 82.2449 119.564 88.2972 122.35C94.3495 125.136 100.951 126.525 107.613 126.413C114.275 126.302 120.826 124.693 126.782 121.705C132.737 118.718 137.944 114.429 142.017 109.155C146.09 103.882 148.924 97.7603 150.309 91.2431C151.695 84.726 151.596 77.9806 150.02 71.5067L130.309 76.3037C131.165 79.8204 131.219 83.4846 130.466 87.0249C129.714 90.5651 128.174 93.8906 125.962 96.7551C123.749 99.6195 120.921 101.949 117.686 103.572C114.451 105.195 110.892 106.069 107.273 106.13C103.654 106.191 100.068 105.436 96.7803 103.923C93.4926 102.409 90.5876 100.175 88.2805 97.3867C85.9733 94.598 84.3232 91.326 83.4524 87.813C82.5816 84.2999 82.5124 80.636 83.2499 77.0926L63.3891 72.9589Z" fill="#659BFF"></path>
</g>
<g filter="url(#svg-1345633727_15311_filter1_d_14761_122)">
<rect x="143.955" width="139.227" height="158.603" rx="21.175" transform="rotate(9.75097 143.955 0)" fill="white" shape-rendering="crispEdges"></rect>
<rect x="144.394" y="0.620424" width="138.153" height="157.529" rx="20.6378" transform="rotate(9.75097 144.394 0.620424)" stroke="#EEEEEE" stroke-width="1.0744" shape-rendering="crispEdges"></rect>
<path d="M231.008 62.6399C227.143 57.4973 222.207 53.2558 216.541 50.2088C210.875 47.1619 204.614 45.3823 198.193 44.9932C191.771 44.6041 185.342 45.6147 179.35 47.9551C173.357 50.2955 167.945 53.9099 163.487 58.5481C159.029 63.1864 155.632 68.7378 153.531 74.8182C151.43 80.8987 150.675 87.363 151.318 93.7641C151.961 100.165 153.987 106.35 157.256 111.891C160.525 117.431 164.959 122.196 170.251 125.854L181.787 109.167C178.913 107.18 176.504 104.592 174.728 101.582C172.953 98.5724 171.852 95.2127 171.503 91.7355C171.153 88.2584 171.563 84.7469 172.705 81.4439C173.846 78.1408 175.691 75.1252 178.113 72.6057C180.535 70.0861 183.475 68.1227 186.73 66.8514C189.985 65.58 193.478 65.031 196.966 65.2424C200.454 65.4538 203.855 66.4205 206.933 68.0756C210.01 69.7308 212.692 72.0348 214.792 74.8284L231.008 62.6399Z" fill="#FFD1A7"></path>
<path d="M158.356 113.658C162.007 119.231 166.865 123.912 172.57 127.353C178.276 130.794 184.682 132.907 191.315 133.536C197.948 134.165 204.638 133.293 210.888 130.986C217.139 128.678 222.79 124.993 227.423 120.205C232.056 115.417 235.552 109.648 237.653 103.325C239.754 97.0015 240.405 90.2869 239.558 83.6782C238.711 77.0694 236.388 70.7359 232.761 65.1468C229.134 59.5578 224.296 54.8564 218.605 51.3911L208.054 68.7178C211.145 70.6003 213.773 73.1541 215.744 76.1902C217.714 79.2262 218.976 82.6667 219.436 86.2567C219.896 89.8467 219.542 93.4942 218.401 96.9289C217.26 100.364 215.361 103.498 212.844 106.099C210.327 108.7 207.258 110.701 203.862 111.955C200.467 113.208 196.833 113.682 193.23 113.34C189.627 112.999 186.147 111.851 183.047 109.982C179.948 108.112 177.309 105.57 175.326 102.542L158.356 113.658Z" fill="#4686FE"></path>
<g filter="url(#svg-1345633727_15311_filter2_d_14761_122)">
<rect x="201.138" y="112" width="30.3388" height="30.3388" rx="15.1694" transform="rotate(9.75097 201.138 112)" fill="white" shape-rendering="crispEdges"></rect>
<path d="M205.883 132.371C205.448 132.296 205.07 132.144 204.75 131.914C204.433 131.681 204.195 131.395 204.037 131.057C203.878 130.718 203.823 130.356 203.872 129.969L204.759 130.121C204.734 130.467 204.841 130.775 205.077 131.047C205.317 131.319 205.632 131.488 206.023 131.556C206.336 131.609 206.625 131.584 206.891 131.479C207.157 131.375 207.382 131.207 207.565 130.976C207.748 130.745 207.868 130.467 207.924 130.141C207.98 129.811 207.958 129.503 207.857 129.216C207.759 128.93 207.598 128.691 207.372 128.498C207.147 128.302 206.873 128.177 206.55 128.121C206.316 128.081 206.07 128.077 205.813 128.11C205.559 128.14 205.345 128.197 205.169 128.283L204.321 128.032L205.422 124.371L209.365 125.049L209.225 125.864L206.056 125.319L205.406 127.515L205.447 127.522C205.625 127.424 205.837 127.355 206.085 127.317C206.334 127.276 206.587 127.278 206.845 127.322C207.31 127.402 207.706 127.584 208.031 127.867C208.357 128.15 208.59 128.501 208.731 128.921C208.877 129.338 208.907 129.792 208.822 130.285C208.739 130.767 208.557 131.18 208.274 131.523C207.991 131.866 207.642 132.114 207.228 132.266C206.814 132.419 206.365 132.454 205.883 132.371Z" fill="#595959"></path>
<path d="M211.681 133.367C211.246 133.292 210.869 133.14 210.548 132.91C210.231 132.677 209.994 132.392 209.835 132.053C209.676 131.715 209.621 131.352 209.67 130.965L210.557 131.118C210.533 131.463 210.639 131.772 210.875 132.043C211.115 132.315 211.431 132.485 211.821 132.552C212.134 132.606 212.423 132.58 212.689 132.476C212.956 132.371 213.18 132.203 213.363 131.972C213.546 131.742 213.666 131.463 213.722 131.137C213.778 130.808 213.756 130.5 213.655 130.213C213.557 129.927 213.396 129.687 213.17 129.495C212.945 129.299 212.671 129.173 212.348 129.118C212.114 129.077 211.868 129.074 211.611 129.106C211.357 129.136 211.143 129.194 210.967 129.279L210.119 129.028L211.22 125.367L215.163 126.045L215.023 126.86L211.854 126.316L211.204 128.512L211.245 128.519C211.423 128.42 211.636 128.352 211.883 128.314C212.132 128.273 212.385 128.274 212.643 128.318C213.108 128.398 213.504 128.58 213.829 128.863C214.155 129.147 214.388 129.498 214.529 129.917C214.675 130.334 214.705 130.788 214.62 131.281C214.537 131.763 214.355 132.176 214.072 132.519C213.789 132.862 213.441 133.11 213.026 133.263C212.612 133.415 212.163 133.45 211.681 133.367Z" fill="#595959"></path>
<path d="M219.24 133.092L219.308 132.695C219.356 132.417 219.456 132.171 219.608 131.96C219.763 131.749 219.963 131.592 220.207 131.491C220.452 131.39 220.732 131.366 221.048 131.42C221.371 131.476 221.629 131.592 221.822 131.769C222.016 131.945 222.147 132.158 222.216 132.408C222.289 132.658 222.301 132.923 222.253 133.201L222.185 133.599C222.137 133.877 222.037 134.122 221.885 134.334C221.733 134.546 221.537 134.702 221.296 134.804C221.054 134.906 220.774 134.93 220.455 134.875C220.135 134.82 219.877 134.704 219.68 134.527C219.484 134.35 219.349 134.136 219.277 133.886C219.204 133.635 219.192 133.371 219.24 133.092ZM220.062 132.825L219.994 133.222C219.954 133.453 219.973 133.67 220.05 133.872C220.128 134.07 220.299 134.194 220.563 134.243C220.825 134.285 221.025 134.224 221.161 134.063C221.301 133.898 221.391 133.7 221.431 133.469L221.499 133.072C221.539 132.841 221.521 132.626 221.447 132.428C221.376 132.23 221.206 132.109 220.938 132.062C220.68 132.018 220.479 132.076 220.336 132.237C220.193 132.398 220.102 132.594 220.062 132.825ZM216.205 128.102L216.274 127.704C216.321 127.426 216.423 127.181 216.578 126.97C216.733 126.759 216.932 126.602 217.173 126.5C217.418 126.399 217.698 126.376 218.014 126.43C218.336 126.485 218.595 126.601 218.788 126.778C218.985 126.955 219.118 127.169 219.187 127.418C219.259 127.668 219.27 127.933 219.218 128.211L219.15 128.608C219.106 128.884 219.006 129.129 218.851 129.343C218.699 129.555 218.502 129.712 218.261 129.814C218.02 129.916 217.739 129.939 217.42 129.884C217.101 129.829 216.843 129.713 216.646 129.536C216.449 129.359 216.314 129.145 216.242 128.895C216.17 128.641 216.158 128.377 216.205 128.102ZM217.028 127.834L216.959 128.231C216.92 128.462 216.938 128.679 217.016 128.881C217.093 129.08 217.265 129.2 217.53 129.242C217.791 129.291 217.99 129.234 218.126 129.072C218.266 128.907 218.356 128.709 218.396 128.478L218.464 128.081C218.504 127.85 218.487 127.635 218.412 127.437C218.342 127.236 218.172 127.115 217.903 127.072C217.646 127.024 217.445 127.082 217.302 127.246C217.159 127.407 217.067 127.603 217.028 127.834ZM215.499 133.918L222.021 127.223L222.867 127.369L216.345 134.064L215.499 133.918Z" fill="#595959"></path>
</g>
<g filter="url(#svg-1345633727_15311_filter3_d_14761_122)">
<rect x="163.472" y="25.9438" width="30.3388" height="30.3388" rx="15.1694" transform="rotate(9.75097 163.472 25.9438)" fill="white" shape-rendering="crispEdges"></rect>
<path d="M165.462 44.131L165.592 43.3769L169.831 38.6711L170.381 38.7657L170.18 39.9376L169.803 39.8728L166.601 43.4245L166.591 43.4856L171.085 44.2579L170.945 45.0731L165.462 44.131ZM168.761 46.303L170.066 38.7114L170.942 38.862L169.637 46.4535L168.761 46.303Z" fill="#595959"></path>
<path d="M173.93 47.2962C173.495 47.2215 173.118 47.0691 172.797 46.8392C172.48 46.6064 172.243 46.3208 172.084 45.9823C171.925 45.6438 171.871 45.2812 171.919 44.8944L172.806 45.0468C172.782 45.3923 172.888 45.7008 173.124 45.9722C173.364 46.2443 173.68 46.4139 174.07 46.481C174.383 46.5347 174.672 46.5092 174.938 46.4046C175.205 46.3 175.429 46.1323 175.612 45.9015C175.795 45.6707 175.915 45.3922 175.971 45.0661C176.028 44.7366 176.005 44.4286 175.904 44.1419C175.807 43.8559 175.645 43.6165 175.419 43.4239C175.194 43.2278 174.92 43.1021 174.597 43.0466C174.363 43.0064 174.117 43.0026 173.86 43.0353C173.606 43.0652 173.392 43.1227 173.216 43.208L172.368 42.9572L173.469 39.2963L177.413 39.974L177.272 40.7892L174.103 40.2446L173.453 42.4408L173.494 42.4479C173.672 42.349 173.885 42.2807 174.132 42.2428C174.381 42.2016 174.634 42.2032 174.892 42.2475C175.358 42.3275 175.753 42.5091 176.078 42.7923C176.404 43.0756 176.637 43.4269 176.779 43.8463C176.924 44.263 176.954 44.7175 176.869 45.21C176.787 45.6924 176.604 46.1051 176.321 46.4481C176.038 46.7912 175.69 47.039 175.275 47.1916C174.861 47.3442 174.412 47.3791 173.93 47.2962Z" fill="#595959"></path>
<path d="M181.489 47.0215L181.557 46.6241C181.605 46.3456 181.705 46.1004 181.857 45.8887C182.012 45.6776 182.212 45.5214 182.456 45.4201C182.701 45.3187 182.981 45.2952 183.297 45.3495C183.62 45.405 183.878 45.521 184.072 45.6976C184.265 45.8742 184.396 46.0874 184.465 46.337C184.538 46.5873 184.55 46.8516 184.502 47.1302L184.434 47.5276C184.386 47.8061 184.286 48.0512 184.134 48.2629C183.983 48.4746 183.786 48.6314 183.545 48.7334C183.303 48.8353 183.023 48.8588 182.704 48.8039C182.384 48.749 182.126 48.633 181.93 48.4558C181.733 48.2786 181.598 48.0649 181.526 47.8146C181.453 47.5644 181.441 47.3 181.489 47.0215ZM182.311 46.7537L182.243 47.1511C182.203 47.3821 182.222 47.5986 182.299 47.8007C182.377 47.9994 182.548 48.1232 182.812 48.1721C183.074 48.2137 183.274 48.1535 183.41 47.9916C183.55 47.8268 183.64 47.629 183.68 47.398L183.748 47.0006C183.788 46.7696 183.77 46.5551 183.696 46.3569C183.625 46.1594 183.455 46.0376 183.187 45.9915C182.929 45.9471 182.728 46.0053 182.585 46.1661C182.442 46.3268 182.351 46.5227 182.311 46.7537ZM178.454 42.0309L178.523 41.6335C178.571 41.355 178.672 41.1101 178.827 40.899C178.982 40.6879 179.181 40.5314 179.422 40.4295C179.667 40.3281 179.947 40.3046 180.263 40.3589C180.586 40.4144 180.844 40.5304 181.037 40.707C181.234 40.8842 181.367 41.0976 181.436 41.3473C181.508 41.5975 181.519 41.8616 181.468 42.1396L181.399 42.537C181.355 42.8127 181.256 43.0578 181.1 43.2723C180.948 43.484 180.751 43.6408 180.51 43.7428C180.269 43.8447 179.989 43.8682 179.669 43.8133C179.35 43.7584 179.092 43.6424 178.895 43.4652C178.698 43.288 178.564 43.0743 178.491 42.824C178.419 42.5704 178.407 42.306 178.454 42.0309ZM179.277 41.7631L179.208 42.1605C179.169 42.3915 179.187 42.608 179.265 42.8101C179.342 43.0088 179.514 43.1292 179.78 43.1713C180.041 43.2197 180.239 43.1629 180.375 43.001C180.516 42.8362 180.606 42.6384 180.645 42.4074L180.713 42.01C180.753 41.779 180.736 41.5645 180.661 41.3663C180.591 41.1654 180.421 41.0436 180.153 41.0009C179.895 40.9531 179.694 41.0113 179.551 41.1755C179.408 41.3362 179.316 41.5321 179.277 41.7631ZM177.749 47.8475L184.27 41.1525L185.116 41.2978L178.594 47.9928L177.749 47.8475Z" fill="#595959"></path>
</g>
</g>
<defs>
<filter id="svg-1345633727_15311_filter0_d_14761_122" x="18.957" y="-3.90308" width="175.822" height="175.823" filterUnits="userSpaceOnUse" color-interpolation-filters="sRGB">
<feFlood flood-opacity="0" result="BackgroundImageFix"></feFlood>
<feColorMatrix in="SourceAlpha" type="matrix" values="0 0 0 0 0 0 0 0 0 0 0 0 0 0 0 0 0 0 127 0" result="hardAlpha"></feColorMatrix>
<feOffset dy="2"></feOffset>
<feGaussianBlur stdDeviation="4"></feGaussianBlur>
<feComposite in2="hardAlpha" operator="out"></feComposite>
<feColorMatrix type="matrix" values="0 0 0 0 0 0 0 0 0 0 0 0 0 0 0 0 0 0 0.05 0"></feColorMatrix>
<feBlend mode="normal" in2="BackgroundImageFix" result="effect1_dropShadow_14761_122"></feBlend>
<feBlend mode="normal" in="SourceGraphic" in2="effect1_dropShadow_14761_122" result="shape"></feBlend>
</filter>
<filter id="svg-1345633727_15311_filter1_d_14761_122" x="109.093" y="-6" width="180.078" height="195.892" filterUnits="userSpaceOnUse" color-interpolation-filters="sRGB">
<feFlood flood-opacity="0" result="BackgroundImageFix"></feFlood>
<feColorMatrix in="SourceAlpha" type="matrix" values="0 0 0 0 0 0 0 0 0 0 0 0 0 0 0 0 0 0 127 0" result="hardAlpha"></feColorMatrix>
<feOffset dy="2"></feOffset>
<feGaussianBlur stdDeviation="4"></feGaussianBlur>
<feComposite in2="hardAlpha" operator="out"></feComposite>
<feColorMatrix type="matrix" values="0 0 0 0 0 0 0 0 0 0 0 0 0 0 0 0 0 0 0.05 0"></feColorMatrix>
<feBlend mode="normal" in2="BackgroundImageFix" result="effect1_dropShadow_14761_122"></feBlend>
<feBlend mode="normal" in="SourceGraphic" in2="effect1_dropShadow_14761_122" result="shape"></feBlend>
</filter>
<filter id="svg-1345633727_15311_filter2_d_14761_122" x="188" y="108" width="51.0386" height="51.0388" filterUnits="userSpaceOnUse" color-interpolation-filters="sRGB">
<feFlood flood-opacity="0" result="BackgroundImageFix"></feFlood>
<feColorMatrix in="SourceAlpha" type="matrix" values="0 0 0 0 0 0 0 0 0 0 0 0 0 0 0 0 0 0 127 0" result="hardAlpha"></feColorMatrix>
<feOffset dy="4"></feOffset>
<feGaussianBlur stdDeviation="4"></feGaussianBlur>
<feComposite in2="hardAlpha" operator="out"></feComposite>
<feColorMatrix type="matrix" values="0 0 0 0 0 0 0 0 0 0 0 0 0 0 0 0 0 0 0.15 0"></feColorMatrix>
<feBlend mode="normal" in2="BackgroundImageFix" result="effect1_dropShadow_14761_122"></feBlend>
<feBlend mode="normal" in="SourceGraphic" in2="effect1_dropShadow_14761_122" result="shape"></feBlend>
</filter>
<filter id="svg-1345633727_15311_filter3_d_14761_122" x="150.334" y="21.9438" width="51.0386" height="51.0388" filterUnits="userSpaceOnUse" color-interpolation-filters="sRGB">
<feFlood flood-opacity="0" result="BackgroundImageFix"></feFlood>
<feColorMatrix in="SourceAlpha" type="matrix" values="0 0 0 0 0 0 0 0 0 0 0 0 0 0 0 0 0 0 127 0" result="hardAlpha"></feColorMatrix>
<feOffset dy="4"></feOffset>
<feGaussianBlur stdDeviation="4"></feGaussianBlur>
<feComposite in2="hardAlpha" operator="out"></feComposite>
<feColorMatrix type="matrix" values="0 0 0 0 0 0 0 0 0 0 0 0 0 0 0 0 0 0 0.15 0"></feColorMatrix>
<feBlend mode="normal" in2="BackgroundImageFix" result="effect1_dropShadow_14761_122"></feBlend>
<feBlend mode="normal" in="SourceGraphic" in2="effect1_dropShadow_14761_122" result="shape"></feBlend>
</filter>
</defs>
</svg>