<svg xmlns="http://www.w3.org/2000/svg" width="309" height="180" viewBox="0 0 309 180" fill="none" id="svg-772689491_37673">
<rect x="23.5" y="0.5" width="262" height="115" rx="23.5" fill="white"></rect>
<rect x="23.5" y="0.5" width="262" height="115" rx="23.5" stroke="#EEEEEE"></rect>
<path d="M111.336 58.2303C111.336 68.0807 103.35 76.066 93.4998 76.066C83.6495 76.066 75.6642 68.0807 75.6642 58.2303C75.6642 48.38 83.6495 40.3947 93.4998 40.3947C103.35 40.3947 111.336 48.38 111.336 58.2303Z" fill="#659BFF" fill-opacity="0.1"></path>
<path d="M105.82 93.7056C86.2273 100.51 64.8285 90.1431 58.0242 70.5507C51.22 50.9582 61.5868 29.5595 81.1792 22.7552C100.772 15.9509 122.17 26.3178 128.975 45.9102C135.779 65.5026 125.412 86.9013 105.82 93.7056ZM83.1811 28.5195C66.7723 34.2182 58.0899 52.1399 63.7886 68.5487C69.4872 84.9576 87.4089 93.6399 103.818 87.9413C120.227 82.2426 128.909 64.3209 123.21 47.9121C117.512 31.5032 99.59 22.8209 83.1811 28.5195Z" fill="#E9ECF1"></path>
<path d="M84.4543 91.526C84.0126 93.1521 84.9714 94.8415 86.628 95.1498C90.7472 95.9166 94.9729 95.9899 99.1296 95.3596C104.294 94.5766 109.238 92.725 113.646 89.9231C118.054 87.1212 121.829 83.4305 124.73 79.087C127.63 74.7434 129.593 69.8426 130.493 64.6975C131.392 59.5524 131.209 54.2762 129.953 49.2061C128.698 44.136 126.399 39.3835 123.203 35.2522C120.008 31.121 115.985 27.7018 111.393 25.2132C107.697 23.2101 103.697 21.8453 99.5616 21.169C97.8986 20.897 96.4235 22.1609 96.2873 23.8404C96.1512 25.52 97.4068 26.9768 99.0653 27.275C102.355 27.8663 105.536 28.9795 108.485 30.5781C112.331 32.6623 115.7 35.5259 118.377 38.9859C121.054 42.4459 122.979 46.4262 124.03 50.6724C125.081 54.9187 125.235 59.3375 124.482 63.6466C123.729 67.9557 122.085 72.0602 119.655 75.698C117.226 79.3357 114.064 82.4267 110.372 84.7734C106.681 87.12 102.54 88.6708 98.2149 89.3265C94.8976 89.8295 91.5278 89.7974 88.2328 89.2377C86.5715 88.9555 84.8961 89.8999 84.4543 91.526Z" fill="#FEBE46"></path>
<path d="M99.904 49.3835C99.8295 49.3245 99.7424 49.2834 99.6494 49.2636C99.5565 49.2439 99.4602 49.2458 99.3681 49.2694L89.3681 51.7694C89.233 51.8032 89.1131 51.8811 89.0273 51.9908C88.9415 52.1005 88.8948 52.2357 88.8947 52.3749V60.9765C88.3732 60.6281 87.7503 60.4639 87.1249 60.5102C86.4995 60.5564 85.9074 60.8103 85.4429 61.2315C84.9783 61.6528 84.6679 62.2172 84.5609 62.8352C84.4539 63.4531 84.5565 64.089 84.8524 64.642C85.1483 65.1949 85.6205 65.6331 86.1939 65.8869C86.7674 66.1407 87.4092 66.1955 88.0174 66.0427C88.6257 65.8899 89.1654 65.5382 89.5508 65.0435C89.9362 64.5488 90.1452 63.9395 90.1447 63.3124V55.9882L98.8947 53.8007V58.4765C98.3732 58.1281 97.7503 57.9639 97.1249 58.0102C96.4995 58.0564 95.9074 58.3103 95.4429 58.7315C94.9783 59.1528 94.6679 59.7172 94.5609 60.3352C94.4539 60.9531 94.5565 61.589 94.8524 62.142C95.1483 62.6949 95.6205 63.1331 96.1939 63.3869C96.7674 63.6407 97.4092 63.6955 98.0174 63.5427C98.6257 63.3899 99.1654 63.0382 99.5508 62.5435C99.9362 62.0488 100.145 61.4395 100.145 60.8124V49.8749C100.144 49.7801 100.123 49.6866 100.081 49.6015C100.039 49.5163 99.9788 49.4418 99.904 49.3835Z" fill="#4686FE"></path>
<path d="M161.469 52.8163V34.6327H162.621V52.8163H161.469ZM162.045 51.2343C160.958 51.2343 160.014 51.065 159.213 50.7265C158.419 50.3814 157.797 49.8899 157.348 49.2519C156.899 48.6138 156.648 47.8554 156.596 46.9765H158.803C158.848 47.5038 159.018 47.9433 159.311 48.2948C159.61 48.6399 159.998 48.897 160.473 49.0663C160.948 49.2356 161.469 49.3202 162.035 49.3202C162.654 49.3202 163.207 49.2226 163.695 49.0272C164.184 48.8319 164.565 48.5585 164.838 48.2069C165.118 47.8489 165.258 47.4322 165.258 46.9569C165.258 46.5272 165.134 46.1757 164.887 45.9022C164.646 45.6288 164.317 45.4042 163.901 45.2284C163.484 45.0461 163.015 44.8866 162.494 44.7499L160.785 44.2812C159.613 43.9687 158.689 43.5032 158.012 42.8847C157.335 42.2597 156.996 41.4426 156.996 40.4335C156.996 39.5937 157.221 38.8612 157.67 38.2362C158.126 37.6112 158.741 37.1262 159.516 36.7812C160.297 36.4296 161.173 36.2538 162.143 36.2538C163.132 36.2538 164.001 36.4296 164.75 36.7812C165.505 37.1262 166.101 37.6015 166.537 38.2069C166.98 38.8059 167.211 39.4927 167.231 40.2675H165.102C165.024 39.5969 164.711 39.0761 164.164 38.705C163.624 38.3339 162.934 38.1483 162.094 38.1483C161.508 38.1483 160.994 38.2427 160.551 38.4315C160.115 38.6138 159.776 38.8677 159.535 39.1933C159.301 39.5188 159.184 39.8931 159.184 40.3163C159.184 40.772 159.324 41.1431 159.604 41.4296C159.89 41.7161 160.235 41.9439 160.639 42.1132C161.049 42.2759 161.443 42.4094 161.82 42.5136L163.236 42.8944C163.699 43.0116 164.174 43.1679 164.662 43.3632C165.151 43.5585 165.603 43.8157 166.02 44.1347C166.443 44.4472 166.781 44.8378 167.035 45.3065C167.296 45.7688 167.426 46.3287 167.426 46.9862C167.426 47.8 167.214 48.5292 166.791 49.1737C166.368 49.8118 165.756 50.3163 164.955 50.6874C164.154 51.052 163.184 51.2343 162.045 51.2343Z" fill="black"></path>
<path d="M173.91 51.1952C172.895 51.1952 171.996 51.0194 171.215 50.6679C170.44 50.3163 169.832 49.8345 169.389 49.2226C168.953 48.6041 168.734 47.9009 168.734 47.1132C168.734 46.5077 168.861 45.9446 169.115 45.4237C169.376 44.9029 169.727 44.47 170.17 44.1249C170.613 43.7799 171.111 43.5585 171.664 43.4608V43.373C170.942 43.1972 170.359 42.8098 169.916 42.2108C169.48 41.6054 169.262 40.9153 169.262 40.1405C169.262 39.3918 169.46 38.7245 169.858 38.1386C170.261 37.5526 170.811 37.0937 171.508 36.7616C172.211 36.4231 173.012 36.2538 173.91 36.2538C174.796 36.2538 175.587 36.4231 176.283 36.7616C176.986 37.0937 177.537 37.5526 177.934 38.1386C178.337 38.7245 178.539 39.3918 178.539 40.1405C178.539 40.9153 178.318 41.6054 177.875 42.2108C177.439 42.8098 176.866 43.1972 176.156 43.373V43.4608C176.703 43.5585 177.198 43.7799 177.641 44.1249C178.083 44.47 178.435 44.9029 178.695 45.4237C178.956 45.9446 179.086 46.5077 179.086 47.1132C179.086 47.9009 178.865 48.6041 178.422 49.2226C177.979 49.8345 177.367 50.3163 176.586 50.6679C175.811 51.0194 174.919 51.1952 173.91 51.1952ZM173.91 49.3983C174.509 49.3983 175.03 49.3007 175.473 49.1054C175.915 48.9036 176.257 48.6203 176.498 48.2558C176.739 47.8912 176.859 47.468 176.859 46.9862C176.859 46.4784 176.729 46.0325 176.469 45.6483C176.215 45.2577 175.867 44.9517 175.424 44.7304C174.981 44.5025 174.477 44.3886 173.91 44.3886C173.337 44.3886 172.826 44.4993 172.377 44.7206C171.934 44.942 171.586 45.248 171.332 45.6386C171.078 46.0292 170.951 46.4784 170.951 46.9862C170.951 47.468 171.072 47.8912 171.313 48.2558C171.554 48.6203 171.895 48.9036 172.338 49.1054C172.781 49.3007 173.305 49.3983 173.91 49.3983ZM173.91 42.6405C174.392 42.6405 174.818 42.5429 175.19 42.3476C175.567 42.1522 175.863 41.8821 176.078 41.537C176.3 41.192 176.41 40.7883 176.41 40.3261C176.41 39.8703 176.303 39.4732 176.088 39.1347C175.88 38.7961 175.587 38.5325 175.209 38.3437C174.838 38.1549 174.405 38.0605 173.91 38.0605C173.409 38.0605 172.97 38.1549 172.592 38.3437C172.214 38.5325 171.921 38.7961 171.713 39.1347C171.505 39.4732 171.401 39.8703 171.401 40.3261C171.401 40.7883 171.508 41.192 171.723 41.537C171.938 41.8821 172.231 42.1522 172.602 42.3476C172.979 42.5429 173.415 42.6405 173.91 42.6405Z" fill="black"></path>
<path d="M185.57 51.1952C184.679 51.1952 183.878 51.0259 183.168 50.6874C182.465 50.3424 181.902 49.8703 181.479 49.2714C181.055 48.6659 180.831 47.9791 180.805 47.2108H182.934C182.986 47.8293 183.262 48.3404 183.764 48.744C184.265 49.1477 184.867 49.3495 185.57 49.3495C186.13 49.3495 186.625 49.2193 187.055 48.9589C187.484 48.6985 187.823 48.3437 188.07 47.8944C188.318 47.4387 188.442 46.9179 188.442 46.3319C188.442 45.746 188.315 45.2219 188.061 44.7597C187.807 44.2909 187.455 43.9231 187.006 43.6562C186.563 43.3892 186.052 43.2558 185.473 43.2558C185.03 43.2558 184.587 43.3339 184.145 43.4901C183.702 43.6399 183.344 43.8352 183.07 44.0761L181.049 43.7831L181.869 36.4491H189.867V38.3339H183.705L183.246 42.4062H183.324C183.604 42.1262 183.979 41.8983 184.447 41.7226C184.923 41.5403 185.434 41.4491 185.981 41.4491C186.866 41.4491 187.654 41.6607 188.344 42.0839C189.04 42.5006 189.587 43.0735 189.984 43.8026C190.382 44.5253 190.58 45.3554 190.58 46.2929C190.58 47.2369 190.365 48.08 189.936 48.8222C189.506 49.5578 188.914 50.1373 188.158 50.5605C187.41 50.9836 186.547 51.1952 185.57 51.1952Z" fill="black"></path>
<path d="M192.758 50.9999L199.106 38.4413V38.3339H191.762V36.4491H201.391V38.412L195.053 50.9999H192.758Z" fill="black"></path>
<path d="M157.031 80.9999V69.3593H164.063V70.6093H158.438V74.4999H163.688V75.7499H158.438V79.7499H164.141V80.9999H157.031Z" fill="#6D6D6D"></path>
<path d="M167 75.7499V80.9999H165.672V72.2655H166.953V73.6405H167.078C167.281 73.1926 167.591 72.8332 168.008 72.5624C168.425 72.2916 168.964 72.1562 169.625 72.1562C170.214 72.1562 170.729 72.2759 171.172 72.5155C171.615 72.7551 171.958 73.1197 172.203 73.6093C172.453 74.0937 172.578 74.7082 172.578 75.453V80.9999H171.25V75.5468C171.25 74.8645 171.07 74.3306 170.711 73.9452C170.352 73.5546 169.862 73.3593 169.242 73.3593C168.815 73.3593 168.432 73.453 168.094 73.6405C167.755 73.828 167.487 74.0989 167.289 74.453C167.096 74.8072 167 75.2395 167 75.7499Z" fill="#6D6D6D"></path>
<path d="M178.078 72.2655V73.4062H173.563V72.2655H178.078ZM174.875 70.1874H176.203V78.4999C176.203 78.953 176.297 79.2864 176.484 79.4999C176.672 79.7082 176.969 79.8124 177.375 79.8124C177.464 79.8124 177.555 79.8072 177.649 79.7968C177.748 79.7864 177.854 79.7707 177.969 79.7499L178.25 80.953C178.125 80.9999 177.971 81.0364 177.789 81.0624C177.612 81.0937 177.432 81.1093 177.25 81.1093C176.547 81.1093 175.974 80.9009 175.531 80.4843C175.094 80.0676 174.875 79.5259 174.875 78.8593V70.1874Z" fill="#6D6D6D"></path>
<path d="M182.922 81.1874C182.083 81.1874 181.357 80.9999 180.742 80.6249C180.133 80.2499 179.664 79.7265 179.336 79.0546C179.008 78.3775 178.844 77.5937 178.844 76.703C178.844 75.8072 179.005 75.0181 179.328 74.3358C179.651 73.6536 180.104 73.1197 180.688 72.7343C181.276 72.3489 181.964 72.1562 182.75 72.1562C183.203 72.1562 183.654 72.2317 184.102 72.3827C184.55 72.5338 184.956 72.7786 185.32 73.1171C185.69 73.4556 185.984 73.9036 186.203 74.4608C186.422 75.0181 186.531 75.703 186.531 76.5155V77.0937H179.797V75.9374H185.805L185.188 76.3749C185.188 75.7916 185.096 75.2733 184.914 74.8202C184.732 74.3671 184.458 74.0103 184.094 73.7499C183.734 73.4895 183.287 73.3593 182.75 73.3593C182.214 73.3593 181.753 73.4921 181.367 73.7577C180.987 74.0181 180.695 74.3593 180.492 74.7812C180.289 75.203 180.188 75.6562 180.188 76.1405V76.9062C180.188 77.5676 180.302 78.1275 180.531 78.5858C180.761 79.0442 181.081 79.3931 181.492 79.6327C181.904 79.8671 182.38 79.9843 182.922 79.9843C183.271 79.9843 183.589 79.9348 183.875 79.8358C184.162 79.7317 184.409 79.578 184.617 79.3749C184.826 79.1666 184.984 78.9114 185.094 78.6093L186.391 78.9843C186.255 79.4218 186.026 79.8072 185.703 80.1405C185.386 80.4687 184.99 80.7265 184.516 80.914C184.042 81.0963 183.511 81.1874 182.922 81.1874Z" fill="#6D6D6D"></path>
<path d="M187.797 80.9999V72.2655H189.078V73.5937H189.172C189.333 73.1614 189.623 72.8124 190.039 72.5468C190.461 72.2759 190.932 72.1405 191.453 72.1405C191.552 72.1405 191.675 72.1431 191.82 72.1483C191.966 72.1483 192.078 72.1509 192.156 72.1562V73.5155C192.109 73.5051 192.005 73.4895 191.844 73.4687C191.682 73.4478 191.511 73.4374 191.328 73.4374C190.906 73.4374 190.529 73.5259 190.195 73.703C189.862 73.8801 189.599 74.1223 189.406 74.4296C189.219 74.7369 189.125 75.0884 189.125 75.4843V80.9999H187.797Z" fill="#6D6D6D"></path>
<path d="M197.328 72.2655V73.4062H192.813V72.2655H197.328ZM194.125 70.1874H195.453V78.4999C195.453 78.953 195.547 79.2864 195.734 79.4999C195.922 79.7082 196.219 79.8124 196.625 79.8124C196.714 79.8124 196.805 79.8072 196.899 79.7968C196.998 79.7864 197.104 79.7707 197.219 79.7499L197.5 80.953C197.375 80.9999 197.221 81.0364 197.039 81.0624C196.862 81.0937 196.682 81.1093 196.5 81.1093C195.797 81.1093 195.224 80.9009 194.781 80.4843C194.344 80.0676 194.125 79.5259 194.125 78.8593V70.1874Z" fill="#6D6D6D"></path>
<path d="M201.172 81.203C200.62 81.203 200.117 81.0989 199.664 80.8905C199.211 80.677 198.852 80.3697 198.586 79.9687C198.32 79.5676 198.188 79.0832 198.188 78.5155C198.188 78.0155 198.287 77.6119 198.484 77.3046C198.682 76.9921 198.945 76.7473 199.274 76.5702C199.607 76.3879 199.971 76.2525 200.367 76.164C200.768 76.0754 201.172 76.0051 201.578 75.953C202.109 75.8853 202.539 75.8332 202.867 75.7968C203.201 75.7603 203.443 75.6978 203.594 75.6093C203.75 75.5207 203.828 75.3697 203.828 75.1562V75.1093C203.828 74.552 203.675 74.1197 203.367 73.8124C203.065 73.4999 202.604 73.3437 201.984 73.3437C201.349 73.3437 200.849 73.4843 200.484 73.7655C200.12 74.0416 199.865 74.3384 199.719 74.6562L198.438 74.203C198.667 73.6718 198.971 73.2577 199.352 72.9608C199.737 72.664 200.154 72.4556 200.602 72.3358C201.055 72.2161 201.5 72.1562 201.938 72.1562C202.219 72.1562 202.542 72.19 202.906 72.2577C203.271 72.3202 203.625 72.4556 203.969 72.664C204.318 72.8671 204.604 73.177 204.828 73.5937C205.057 74.0051 205.172 74.5572 205.172 75.2499V80.9999H203.828V79.8124H203.766C203.677 79.9999 203.526 80.203 203.313 80.4218C203.099 80.6353 202.815 80.8202 202.461 80.9765C202.112 81.1275 201.682 81.203 201.172 81.203ZM201.375 79.9999C201.906 79.9999 202.354 79.8957 202.719 79.6874C203.083 79.4791 203.359 79.2108 203.547 78.8827C203.734 78.5494 203.828 78.203 203.828 77.8437V76.6093C203.771 76.677 203.646 76.7395 203.453 76.7968C203.266 76.8489 203.047 76.8957 202.797 76.9374C202.552 76.9791 202.313 77.0155 202.078 77.0468C201.844 77.0728 201.656 77.0937 201.516 77.1093C201.167 77.1562 200.841 77.2317 200.539 77.3358C200.237 77.4348 199.992 77.5832 199.805 77.7812C199.623 77.9791 199.531 78.2499 199.531 78.5937C199.531 79.0572 199.703 79.4088 200.047 79.6483C200.396 79.8827 200.839 79.9999 201.375 79.9999Z" fill="#6D6D6D"></path>
<path d="M206.891 80.9999V72.2655H208.219V80.9999H206.891ZM207.563 70.8124C207.302 70.8124 207.078 70.7239 206.891 70.5468C206.703 70.3697 206.609 70.1562 206.609 69.9062C206.609 69.6562 206.703 69.4426 206.891 69.2655C207.078 69.0884 207.302 68.9999 207.563 68.9999C207.823 68.9999 208.047 69.0884 208.234 69.2655C208.422 69.4426 208.516 69.6562 208.516 69.9062C208.516 70.1562 208.422 70.3697 208.234 70.5468C208.047 70.7239 207.823 70.8124 207.563 70.8124Z" fill="#6D6D6D"></path>
<path d="M211.266 75.7499V80.9999H209.938V72.2655H211.219V73.6405H211.344C211.547 73.1926 211.857 72.8332 212.274 72.5624C212.69 72.2916 213.229 72.1562 213.891 72.1562C214.479 72.1562 214.995 72.2759 215.438 72.5155C215.88 72.7551 216.224 73.1197 216.469 73.6093C216.719 74.0937 216.844 74.7082 216.844 75.453V80.9999H215.516V75.5468C215.516 74.8645 215.336 74.3306 214.977 73.9452C214.617 73.5546 214.128 73.3593 213.508 73.3593C213.081 73.3593 212.698 73.453 212.359 73.6405C212.021 73.828 211.753 74.0989 211.555 74.453C211.362 74.8072 211.266 75.2395 211.266 75.7499Z" fill="#6D6D6D"></path>
<path d="M218.563 80.9999V72.2655H219.844V73.6405H219.969C220.151 73.1718 220.445 72.8072 220.852 72.5468C221.258 72.2864 221.745 72.1562 222.313 72.1562C222.886 72.1562 223.362 72.2864 223.742 72.5468C224.128 72.8072 224.427 73.1718 224.641 73.6405H224.734C224.964 73.1874 225.3 72.828 225.742 72.5624C226.19 72.2916 226.724 72.1562 227.344 72.1562C228.125 72.1562 228.766 72.4009 229.266 72.8905C229.766 73.3749 230.016 74.1301 230.016 75.1562V80.9999H228.672V75.1562C228.672 74.5103 228.495 74.0494 228.141 73.7733C227.787 73.4973 227.37 73.3593 226.891 73.3593C226.281 73.3593 225.807 73.5468 225.469 73.9218C225.136 74.2916 224.969 74.7551 224.969 75.3124V80.9999H223.594V75.0155C223.594 74.5207 223.435 74.1223 223.117 73.8202C222.8 73.5129 222.386 73.3593 221.875 73.3593C221.526 73.3593 221.201 73.453 220.899 73.6405C220.596 73.828 220.352 74.0858 220.164 74.414C219.982 74.7421 219.891 75.1197 219.891 75.5468V80.9999H218.563Z" fill="#6D6D6D"></path>
<path d="M235.391 81.1874C234.552 81.1874 233.826 80.9999 233.211 80.6249C232.602 80.2499 232.133 79.7265 231.805 79.0546C231.477 78.3775 231.313 77.5937 231.313 76.703C231.313 75.8072 231.474 75.0181 231.797 74.3358C232.12 73.6536 232.573 73.1197 233.156 72.7343C233.745 72.3489 234.432 72.1562 235.219 72.1562C235.672 72.1562 236.123 72.2317 236.57 72.3827C237.018 72.5338 237.425 72.7786 237.789 73.1171C238.159 73.4556 238.453 73.9036 238.672 74.4608C238.891 75.0181 239 75.703 239 76.5155V77.0937H232.266V75.9374H238.274L237.656 76.3749C237.656 75.7916 237.565 75.2733 237.383 74.8202C237.201 74.3671 236.927 74.0103 236.563 73.7499C236.203 73.4895 235.755 73.3593 235.219 73.3593C234.682 73.3593 234.221 73.4921 233.836 73.7577C233.456 74.0181 233.164 74.3593 232.961 74.7812C232.758 75.203 232.656 75.6562 232.656 76.1405V76.9062C232.656 77.5676 232.771 78.1275 233 78.5858C233.229 79.0442 233.55 79.3931 233.961 79.6327C234.373 79.8671 234.849 79.9843 235.391 79.9843C235.74 79.9843 236.057 79.9348 236.344 79.8358C236.63 79.7317 236.878 79.578 237.086 79.3749C237.294 79.1666 237.453 78.9114 237.563 78.6093L238.859 78.9843C238.724 79.4218 238.495 79.8072 238.172 80.1405C237.854 80.4687 237.458 80.7265 236.984 80.914C236.511 81.0963 235.979 81.1874 235.391 81.1874Z" fill="#6D6D6D"></path>
<path d="M241.594 75.7499V80.9999H240.266V72.2655H241.547V73.6405H241.672C241.875 73.1926 242.185 72.8332 242.602 72.5624C243.018 72.2916 243.557 72.1562 244.219 72.1562C244.807 72.1562 245.323 72.2759 245.766 72.5155C246.208 72.7551 246.552 73.1197 246.797 73.6093C247.047 74.0937 247.172 74.7082 247.172 75.453V80.9999H245.844V75.5468C245.844 74.8645 245.664 74.3306 245.305 73.9452C244.945 73.5546 244.456 73.3593 243.836 73.3593C243.409 73.3593 243.026 73.453 242.688 73.6405C242.349 73.828 242.081 74.0989 241.883 74.453C241.69 74.8072 241.594 75.2395 241.594 75.7499Z" fill="#6D6D6D"></path>
<path d="M252.672 72.2655V73.4062H248.156V72.2655H252.672ZM249.469 70.1874H250.797V78.4999C250.797 78.953 250.891 79.2864 251.078 79.4999C251.266 79.7082 251.563 79.8124 251.969 79.8124C252.057 79.8124 252.149 79.8072 252.242 79.7968C252.341 79.7864 252.448 79.7707 252.563 79.7499L252.844 80.953C252.719 80.9999 252.565 81.0364 252.383 81.0624C252.206 81.0937 252.026 81.1093 251.844 81.1093C251.141 81.1093 250.568 80.9009 250.125 80.4843C249.688 80.0676 249.469 79.5259 249.469 78.8593V70.1874Z" fill="#6D6D6D"></path>
<g filter="url(#svg-772689491_37673_filter0_d_14761_66)">
<rect y="39.2258" width="309.105" height="140.548" rx="24" fill="white" shape-rendering="crispEdges"></rect>
<rect x="0.5" y="39.7258" width="308.105" height="139.548" rx="23.5" stroke="#EEEEEE" shape-rendering="crispEdges"></rect>
<path d="M104.601 109.781C104.601 121.776 94.8771 131.5 82.8819 131.5C70.8867 131.5 61.1627 121.776 61.1627 109.781C61.1627 97.7854 70.8867 88.0613 82.8819 88.0613C94.8771 88.0613 104.601 97.7854 104.601 109.781Z" fill="#659BFF" fill-opacity="0.1"></path>
<path d="M97.8847 152.98C74.0262 161.266 47.968 148.642 39.6822 124.784C31.3963 100.925 44.0204 74.867 67.8789 66.5811C91.7374 58.2952 117.796 70.9194 126.081 94.7779C134.367 118.636 121.743 144.695 97.8847 152.98ZM70.3167 73.6006C50.335 80.5401 39.7622 102.364 46.7017 122.346C53.6411 142.328 75.4651 152.9 95.4469 145.961C115.429 139.021 126.001 117.197 119.062 97.2157C112.122 77.2339 90.2985 66.6611 70.3167 73.6006Z" fill="#E9ECF1"></path>
<path d="M71.8672 150.326C71.3292 152.306 72.4969 154.364 74.5142 154.739C79.5302 155.673 84.6761 155.762 89.7379 154.995C96.0265 154.041 102.047 151.786 107.415 148.374C112.783 144.962 117.38 140.468 120.912 135.179C124.445 129.889 126.835 123.921 127.93 117.656C129.025 111.391 128.802 104.966 127.273 98.7915C125.745 92.6174 122.945 86.8301 119.054 81.7992C115.162 76.7684 110.263 72.6048 104.671 69.5743C100.17 67.135 95.2992 65.4731 90.2639 64.6495C88.2389 64.3183 86.4425 65.8574 86.2767 67.9026C86.111 69.9478 87.64 71.7219 89.6595 72.085C93.6653 72.8051 97.5387 74.1607 101.131 76.1074C105.814 78.6454 109.917 82.1326 113.176 86.3459C116.436 90.5593 118.78 95.4062 120.06 100.577C121.34 105.748 121.528 111.129 120.61 116.376C119.693 121.624 117.691 126.622 114.733 131.052C111.774 135.482 107.924 139.246 103.429 142.103C98.933 144.961 93.8908 146.849 88.624 147.648C84.5844 148.26 80.4808 148.221 76.4683 147.54C74.4454 147.196 72.4052 148.346 71.8672 150.326Z" fill="#4686FE"></path>
<path d="M90.6809 99.0075C90.5902 98.9356 90.4841 98.8856 90.3709 98.8615C90.2577 98.8375 90.1404 98.8399 90.0283 98.8686L77.8509 101.913C77.6864 101.954 77.5403 102.049 77.4359 102.183C77.3314 102.316 77.2746 102.481 77.2744 102.65V113.125C76.6394 112.7 75.8808 112.501 75.1192 112.557C74.3576 112.613 73.6367 112.922 73.071 113.435C72.5053 113.948 72.1272 114.636 71.9969 115.388C71.8667 116.141 71.9916 116.915 72.3519 117.588C72.7122 118.262 73.2872 118.795 73.9856 119.104C74.6839 119.413 75.4655 119.48 76.2061 119.294C76.9468 119.108 77.604 118.68 78.0733 118.077C78.5427 117.475 78.7972 116.733 78.7965 115.969V107.05L89.4518 104.386V110.08C88.8168 109.656 88.0582 109.456 87.2967 109.513C86.5351 109.569 85.8141 109.878 85.2484 110.391C84.6827 110.904 84.3047 111.591 84.1744 112.344C84.0441 113.096 84.169 113.871 84.5293 114.544C84.8896 115.217 85.4646 115.751 86.163 116.06C86.8613 116.369 87.6429 116.436 88.3836 116.25C89.1242 116.064 89.7814 115.635 90.2508 115.033C90.7201 114.431 90.9747 113.689 90.9739 112.925V99.6059C90.9737 99.4905 90.9472 99.3766 90.8964 99.2729C90.8456 99.1693 90.772 99.0785 90.6809 99.0075Z" fill="#4686FE"></path>
<path d="M160.425 103.276V81.1336H161.829V103.276H160.425ZM161.127 101.35C159.803 101.35 158.653 101.144 157.678 100.732C156.711 100.311 155.954 99.7129 155.407 98.9359C154.86 98.159 154.555 97.2354 154.491 96.1651H157.179C157.234 96.8072 157.44 97.3424 157.797 97.7705C158.162 98.1907 158.634 98.5038 159.212 98.71C159.791 98.9161 160.425 99.0192 161.115 99.0192C161.868 99.0192 162.542 98.9002 163.137 98.6624C163.731 98.4246 164.195 98.0916 164.528 97.6635C164.869 97.2274 165.039 96.72 165.039 96.1413C165.039 95.618 164.889 95.1899 164.587 94.857C164.294 94.524 163.894 94.2505 163.386 94.0364C162.879 93.8144 162.308 93.6202 161.674 93.4537L159.593 92.8829C158.166 92.5023 157.04 91.9355 156.215 91.1823C155.391 90.4212 154.979 89.4263 154.979 88.1974C154.979 87.1747 155.252 86.2828 155.799 85.5217C156.354 84.7606 157.103 84.17 158.047 83.7498C158.998 83.3217 160.065 83.1076 161.246 83.1076C162.451 83.1076 163.509 83.3217 164.421 83.7498C165.341 84.17 166.066 84.7487 166.597 85.486C167.136 86.2154 167.418 87.0518 167.442 87.9953H164.849C164.754 87.1787 164.373 86.5444 163.707 86.0925C163.049 85.6406 162.209 85.4147 161.186 85.4147C160.473 85.4147 159.847 85.5297 159.307 85.7596C158.776 85.9815 158.364 86.2907 158.071 86.6871C157.785 87.0835 157.643 87.5394 157.643 88.0547C157.643 88.6097 157.813 89.0616 158.154 89.4104C158.503 89.7592 158.923 90.0367 159.414 90.2429C159.914 90.4411 160.394 90.6036 160.853 90.7304L162.578 91.1942C163.141 91.3369 163.719 91.5272 164.314 91.765C164.909 92.0029 165.46 92.316 165.967 92.7045C166.482 93.085 166.894 93.5607 167.204 94.1315C167.521 94.6944 167.679 95.3762 167.679 96.177C167.679 97.168 167.422 98.0559 166.906 98.8408C166.391 99.6177 165.646 100.232 164.671 100.684C163.696 101.128 162.514 101.35 161.127 101.35Z" fill="black"></path>
<path d="M176.004 83.3455V101.065H173.364V86.0331H173.245L169.035 88.8039V86.2352L173.435 83.3455H176.004Z" fill="black"></path>
<path d="M178.406 105.453L179.452 98.5197H182.235L180.273 105.453H178.406Z" fill="black"></path>
<path d="M185.303 101.065V99.1381L191.297 92.9067C191.931 92.2407 192.454 91.654 192.867 91.1466C193.287 90.6313 193.6 90.1438 193.806 89.6839C194.02 89.2241 194.127 88.7365 194.127 88.2212C194.127 87.6266 193.988 87.1153 193.711 86.6871C193.434 86.259 193.057 85.93 192.581 85.7001C192.106 85.4702 191.566 85.3552 190.964 85.3552C190.33 85.3552 189.779 85.486 189.311 85.7477C188.843 86.0014 188.478 86.3661 188.217 86.8417C187.963 87.3095 187.836 87.8605 187.836 88.4947H185.291C185.291 87.4165 185.537 86.4731 186.029 85.6644C186.528 84.8558 187.21 84.2295 188.074 83.7855C188.946 83.3336 189.929 83.1076 191.023 83.1076C192.141 83.1076 193.124 83.3296 193.973 83.7736C194.821 84.2176 195.483 84.8201 195.959 85.5812C196.434 86.3343 196.672 87.1866 196.672 88.138C196.672 88.796 196.549 89.4382 196.303 90.0645C196.066 90.6908 195.641 91.3924 195.031 92.1694C194.428 92.9384 193.588 93.866 192.51 94.9521L188.99 98.6386V98.7813H196.958V101.065H185.303Z" fill="black"></path>
<path d="M205.389 101.302C204.192 101.302 203.129 101.1 202.202 100.696C201.274 100.284 200.541 99.7129 200.002 98.9835C199.463 98.2541 199.177 97.4098 199.146 96.4505H201.833C201.873 96.9737 202.051 97.4256 202.368 97.8062C202.685 98.1867 203.102 98.484 203.617 98.6981C204.14 98.9042 204.723 99.0073 205.365 99.0073C206.063 99.0073 206.681 98.8844 207.22 98.6386C207.759 98.3928 208.18 98.0559 208.481 97.6278C208.79 97.1918 208.945 96.6883 208.945 96.1175C208.945 95.5229 208.794 94.9997 208.493 94.5478C208.191 94.0879 207.751 93.7312 207.173 93.4775C206.594 93.2238 205.896 93.0969 205.08 93.0969H203.569V90.9088H205.08C205.73 90.9088 206.305 90.7899 206.804 90.552C207.304 90.3142 207.692 89.9852 207.97 89.565C208.255 89.1448 208.398 88.6493 208.398 88.0785C208.398 87.5315 208.275 87.0558 208.029 86.6515C207.783 86.2392 207.438 85.9221 206.994 85.7001C206.55 85.4702 206.027 85.3552 205.425 85.3552C204.846 85.3552 204.307 85.4583 203.807 85.6644C203.308 85.8706 202.9 86.1679 202.582 86.5563C202.273 86.9369 202.111 87.4007 202.095 87.9477H199.514C199.538 86.9884 199.816 86.148 200.347 85.4266C200.886 84.6972 201.599 84.1304 202.487 83.726C203.383 83.3138 204.374 83.1076 205.46 83.1076C206.594 83.1076 207.573 83.3296 208.398 83.7736C209.23 84.2096 209.872 84.7963 210.324 85.5336C210.776 86.263 211.002 87.0598 211.002 87.9239C211.002 88.9308 210.724 89.7791 210.17 90.4688C209.615 91.1506 208.873 91.6144 207.946 91.8602V91.991C209.119 92.1733 210.027 92.6411 210.669 93.3942C211.319 94.1474 211.644 95.0829 211.644 96.2007C211.644 97.1759 211.371 98.048 210.824 98.817C210.284 99.586 209.543 100.193 208.6 100.636C207.664 101.08 206.594 101.302 205.389 101.302Z" fill="black"></path>
<path d="M219.743 101.302C218.656 101.302 217.681 101.096 216.817 100.684C215.961 100.264 215.275 99.6891 214.76 98.9597C214.245 98.2224 213.971 97.386 213.939 96.4505H216.532C216.595 97.2036 216.932 97.826 217.543 98.3175C218.153 98.8091 218.886 99.0548 219.743 99.0548C220.424 99.0548 221.027 98.8963 221.55 98.5792C222.073 98.262 222.486 97.83 222.787 97.2829C223.088 96.728 223.239 96.0937 223.239 95.3802C223.239 94.6667 223.084 94.0285 222.775 93.4656C222.466 92.8948 222.038 92.4468 221.491 92.1218C220.952 91.7967 220.329 91.6342 219.624 91.6342C219.085 91.6342 218.545 91.7294 218.006 91.9196C217.467 92.102 217.031 92.3398 216.698 92.6331L214.237 92.2764L215.236 83.3455H224.975V85.6406H217.471L216.912 90.5996H217.007C217.348 90.2587 217.804 89.9812 218.375 89.7672C218.954 89.5452 219.576 89.4342 220.242 89.4342C221.32 89.4342 222.28 89.6919 223.12 90.2072C223.968 90.7146 224.634 91.4122 225.118 92.3002C225.601 93.1802 225.843 94.191 225.843 95.3326C225.843 96.4822 225.582 97.5089 225.058 98.4127C224.535 99.3085 223.814 100.014 222.894 100.529C221.982 101.045 220.932 101.302 219.743 101.302Z" fill="black"></path>
<path d="M155.022 137.936V123.76H163.584V125.282H156.734V130.02H163.127V131.542H156.734V136.413H163.679V137.936H155.022Z" fill="#6D6D6D"></path>
<path d="M167.161 131.542V137.936H165.544V127.299H167.104V128.974H167.256C167.503 128.428 167.881 127.991 168.388 127.661C168.896 127.331 169.552 127.166 170.357 127.166C171.074 127.166 171.702 127.312 172.241 127.604C172.78 127.896 173.199 128.339 173.497 128.936C173.801 129.526 173.954 130.274 173.954 131.181V137.936H172.336V131.295C172.336 130.464 172.117 129.814 171.68 129.345C171.242 128.869 170.646 128.631 169.891 128.631C169.371 128.631 168.905 128.745 168.493 128.974C168.081 129.202 167.754 129.532 167.513 129.963C167.278 130.394 167.161 130.921 167.161 131.542Z" fill="#6D6D6D"></path>
<path d="M180.651 127.299V128.688H175.152V127.299H180.651ZM176.751 124.769H178.368V134.891C178.368 135.443 178.482 135.849 178.71 136.109C178.939 136.363 179.3 136.489 179.795 136.489C179.903 136.489 180.014 136.483 180.128 136.47C180.248 136.458 180.378 136.439 180.518 136.413L180.86 137.878C180.708 137.936 180.521 137.98 180.299 138.012C180.084 138.05 179.865 138.069 179.643 138.069C178.787 138.069 178.089 137.815 177.55 137.308C177.017 136.8 176.751 136.141 176.751 135.329V124.769Z" fill="#6D6D6D"></path>
<path d="M186.55 138.164C185.528 138.164 184.644 137.936 183.895 137.479C183.153 137.022 182.582 136.385 182.183 135.567C181.783 134.742 181.584 133.788 181.584 132.703C181.584 131.612 181.78 130.651 182.173 129.82C182.567 128.99 183.118 128.339 183.829 127.87C184.545 127.401 185.383 127.166 186.34 127.166C186.892 127.166 187.441 127.258 187.986 127.442C188.532 127.626 189.026 127.924 189.47 128.336C189.921 128.749 190.279 129.294 190.545 129.973C190.812 130.651 190.945 131.485 190.945 132.475V133.179H182.744V131.771H190.06L189.309 132.303C189.309 131.593 189.198 130.962 188.976 130.41C188.754 129.858 188.421 129.424 187.977 129.107C187.539 128.79 186.994 128.631 186.34 128.631C185.687 128.631 185.126 128.793 184.656 129.116C184.193 129.434 183.838 129.849 183.591 130.363C183.344 130.876 183.22 131.428 183.22 132.018V132.95C183.22 133.756 183.359 134.438 183.638 134.996C183.918 135.554 184.308 135.979 184.809 136.271C185.31 136.556 185.89 136.699 186.55 136.699C186.975 136.699 187.361 136.639 187.71 136.518C188.059 136.391 188.36 136.204 188.614 135.957C188.868 135.703 189.061 135.392 189.194 135.024L190.774 135.481C190.609 136.014 190.33 136.483 189.936 136.889C189.55 137.289 189.068 137.603 188.49 137.831C187.913 138.053 187.266 138.164 186.55 138.164Z" fill="#6D6D6D"></path>
<path d="M192.486 137.936V127.299H194.046V128.917H194.161C194.357 128.39 194.709 127.965 195.217 127.642C195.73 127.312 196.304 127.147 196.938 127.147C197.059 127.147 197.208 127.15 197.386 127.157C197.563 127.157 197.7 127.16 197.795 127.166V128.822C197.738 128.809 197.611 128.79 197.414 128.764C197.218 128.739 197.008 128.726 196.786 128.726C196.273 128.726 195.813 128.834 195.407 129.05C195.001 129.265 194.681 129.56 194.446 129.935C194.218 130.309 194.103 130.737 194.103 131.219V137.936H192.486Z" fill="#6D6D6D"></path>
<path d="M204.093 127.299V128.688H198.594V127.299H204.093ZM200.192 124.769H201.809V134.891C201.809 135.443 201.924 135.849 202.152 136.109C202.38 136.363 202.742 136.489 203.236 136.489C203.344 136.489 203.455 136.483 203.569 136.47C203.69 136.458 203.82 136.439 203.96 136.413L204.302 137.878C204.15 137.936 203.963 137.98 203.741 138.012C203.525 138.05 203.306 138.069 203.084 138.069C202.228 138.069 201.53 137.815 200.991 137.308C200.459 136.8 200.192 136.141 200.192 135.329V124.769Z" fill="#6D6D6D"></path>
<path d="M208.773 138.183C208.101 138.183 207.489 138.056 206.937 137.802C206.385 137.542 205.948 137.168 205.624 136.68C205.301 136.191 205.139 135.602 205.139 134.91C205.139 134.301 205.26 133.81 205.501 133.436C205.742 133.055 206.062 132.757 206.462 132.541C206.868 132.319 207.311 132.154 207.794 132.047C208.282 131.939 208.773 131.853 209.268 131.79C209.915 131.707 210.438 131.644 210.838 131.599C211.244 131.555 211.539 131.479 211.723 131.371C211.913 131.263 212.008 131.079 212.008 130.819V130.762C212.008 130.084 211.821 129.557 211.447 129.183C211.079 128.802 210.518 128.612 209.763 128.612C208.989 128.612 208.38 128.783 207.936 129.126C207.492 129.462 207.181 129.824 207.004 130.211L205.444 129.659C205.723 129.012 206.094 128.508 206.557 128.146C207.026 127.785 207.533 127.531 208.079 127.385C208.631 127.239 209.173 127.166 209.706 127.166C210.048 127.166 210.441 127.207 210.885 127.29C211.329 127.366 211.761 127.531 212.179 127.785C212.604 128.032 212.953 128.409 213.226 128.917C213.505 129.418 213.644 130.09 213.644 130.934V137.936H212.008V136.489H211.932C211.824 136.718 211.64 136.965 211.38 137.232C211.12 137.492 210.774 137.717 210.343 137.907C209.918 138.091 209.395 138.183 208.773 138.183ZM209.021 136.718C209.668 136.718 210.213 136.591 210.657 136.337C211.101 136.084 211.437 135.757 211.666 135.357C211.894 134.951 212.008 134.53 212.008 134.092V132.589C211.938 132.671 211.786 132.747 211.551 132.817C211.323 132.881 211.057 132.938 210.752 132.988C210.454 133.039 210.162 133.084 209.877 133.122C209.592 133.153 209.363 133.179 209.192 133.198C208.767 133.255 208.371 133.347 208.003 133.474C207.635 133.594 207.337 133.775 207.109 134.016C206.887 134.257 206.776 134.587 206.776 135.005C206.776 135.57 206.985 135.998 207.403 136.29C207.828 136.575 208.367 136.718 209.021 136.718Z" fill="#6D6D6D"></path>
<path d="M215.737 137.936V127.299H217.355V137.936H215.737ZM216.556 125.53C216.238 125.53 215.966 125.422 215.737 125.206C215.509 124.991 215.395 124.731 215.395 124.426C215.395 124.122 215.509 123.862 215.737 123.646C215.966 123.43 216.238 123.323 216.556 123.323C216.873 123.323 217.145 123.43 217.374 123.646C217.602 123.862 217.716 124.122 217.716 124.426C217.716 124.731 217.602 124.991 217.374 125.206C217.145 125.422 216.873 125.53 216.556 125.53Z" fill="#6D6D6D"></path>
<path d="M221.065 131.542V137.936H219.448V127.299H221.008V128.974H221.16C221.407 128.428 221.785 127.991 222.292 127.661C222.8 127.331 223.456 127.166 224.262 127.166C224.978 127.166 225.606 127.312 226.145 127.604C226.684 127.896 227.103 128.339 227.401 128.936C227.705 129.526 227.858 130.274 227.858 131.181V137.936H226.24V131.295C226.24 130.464 226.022 129.814 225.584 129.345C225.146 128.869 224.55 128.631 223.795 128.631C223.275 128.631 222.809 128.745 222.397 128.974C221.985 129.202 221.658 129.532 221.417 129.963C221.182 130.394 221.065 130.921 221.065 131.542Z" fill="#6D6D6D"></path>
<path d="M229.951 137.936V127.299H231.511V128.974H231.663C231.885 128.403 232.243 127.959 232.738 127.642C233.233 127.325 233.826 127.166 234.517 127.166C235.215 127.166 235.795 127.325 236.258 127.642C236.728 127.959 237.092 128.403 237.352 128.974H237.466C237.746 128.422 238.155 127.984 238.694 127.661C239.239 127.331 239.889 127.166 240.644 127.166C241.595 127.166 242.375 127.464 242.984 128.06C243.593 128.65 243.898 129.57 243.898 130.819V137.936H242.261V130.819C242.261 130.033 242.046 129.472 241.614 129.135C241.183 128.799 240.676 128.631 240.092 128.631C239.35 128.631 238.773 128.86 238.361 129.316C237.955 129.767 237.752 130.331 237.752 131.01V137.936H236.077V130.648C236.077 130.046 235.884 129.56 235.497 129.193C235.11 128.818 234.606 128.631 233.984 128.631C233.56 128.631 233.163 128.745 232.795 128.974C232.427 129.202 232.129 129.516 231.901 129.916C231.679 130.315 231.568 130.775 231.568 131.295V137.936H229.951Z" fill="#6D6D6D"></path>
<path d="M250.443 138.164C249.422 138.164 248.537 137.936 247.789 137.479C247.047 137.022 246.476 136.385 246.076 135.567C245.677 134.742 245.477 133.788 245.477 132.703C245.477 131.612 245.674 130.651 246.067 129.82C246.46 128.99 247.012 128.339 247.722 127.87C248.439 127.401 249.276 127.166 250.234 127.166C250.786 127.166 251.334 127.258 251.88 127.442C252.425 127.626 252.92 127.924 253.364 128.336C253.814 128.749 254.172 129.294 254.439 129.973C254.705 130.651 254.838 131.485 254.838 132.475V133.179H246.638V131.771H253.954L253.202 132.303C253.202 131.593 253.091 130.962 252.869 130.41C252.647 129.858 252.314 129.424 251.87 129.107C251.432 128.79 250.887 128.631 250.234 128.631C249.58 128.631 249.019 128.793 248.55 129.116C248.087 129.434 247.732 129.849 247.484 130.363C247.237 130.876 247.113 131.428 247.113 132.018V132.95C247.113 133.756 247.253 134.438 247.532 134.996C247.811 135.554 248.201 135.979 248.702 136.271C249.203 136.556 249.783 136.699 250.443 136.699C250.868 136.699 251.255 136.639 251.604 136.518C251.953 136.391 252.254 136.204 252.507 135.957C252.761 135.703 252.955 135.392 253.088 135.024L254.667 135.481C254.502 136.014 254.223 136.483 253.83 136.889C253.443 137.289 252.961 137.603 252.384 137.831C251.807 138.053 251.16 138.164 250.443 138.164Z" fill="#6D6D6D"></path>
<path d="M257.997 131.542V137.936H256.38V127.299H257.94V128.974H258.092C258.339 128.428 258.717 127.991 259.224 127.661C259.731 127.331 260.388 127.166 261.193 127.166C261.91 127.166 262.538 127.312 263.077 127.604C263.616 127.896 264.035 128.339 264.333 128.936C264.637 129.526 264.79 130.274 264.79 131.181V137.936H263.172V131.295C263.172 130.464 262.953 129.814 262.516 129.345C262.078 128.869 261.482 128.631 260.727 128.631C260.207 128.631 259.741 128.745 259.329 128.974C258.916 129.202 258.59 129.532 258.349 129.963C258.114 130.394 257.997 130.921 257.997 131.542Z" fill="#6D6D6D"></path>
<path d="M271.487 127.299V128.688H265.988V127.299H271.487ZM267.587 124.769H269.204V134.891C269.204 135.443 269.318 135.849 269.546 136.109C269.775 136.363 270.136 136.489 270.631 136.489C270.739 136.489 270.85 136.483 270.964 136.47C271.084 136.458 271.214 136.439 271.354 136.413L271.696 137.878C271.544 137.936 271.357 137.98 271.135 138.012C270.919 138.05 270.701 138.069 270.479 138.069C269.622 138.069 268.925 137.815 268.386 137.308C267.853 136.8 267.587 136.141 267.587 135.329V124.769Z" fill="#6D6D6D"></path>
</g>
<defs>
<filter id="svg-772689491_37673_filter0_d_14761_66" x="-8" y="28.2258" width="325.104" height="156.548" filterUnits="userSpaceOnUse" color-interpolation-filters="sRGB">
<feFlood flood-opacity="0" result="BackgroundImageFix"></feFlood>
<feColorMatrix in="SourceAlpha" type="matrix" values="0 0 0 0 0 0 0 0 0 0 0 0 0 0 0 0 0 0 127 0" result="hardAlpha"></feColorMatrix>
<feOffset dy="-3"></feOffset>
<feGaussianBlur stdDeviation="4"></feGaussianBlur>
<feComposite in2="hardAlpha" operator="out"></feComposite>
<feColorMatrix type="matrix" values="0 0 0 0 0 0 0 0 0 0 0 0 0 0 0 0 0 0 0.05 0"></feColorMatrix>
<feBlend mode="normal" in2="BackgroundImageFix" result="effect1_dropShadow_14761_66"></feBlend>
<feBlend mode="normal" in="SourceGraphic" in2="effect1_dropShadow_14761_66" result="shape"></feBlend>
</filter>
</defs>
</svg>