<svg xmlns="http://www.w3.org/2000/svg" width="309" height="180" viewBox="0 0 309 180" fill="none" id="svg472935468_5058">
<path d="M304.035 168.125C304.035 166.765 304.016 165.405 303.979 164.046L279.01 164.739C279.041 165.867 279.057 166.996 279.057 168.125H304.035Z" fill="#E6E6E6"></path>
<path d="M303.212 152.589C303.068 151.237 302.905 149.887 302.724 148.539L277.968 151.87C278.119 152.988 278.254 154.109 278.373 155.231L303.212 152.589Z" fill="#E6E6E6"></path>
<path d="M300.74 137.188C300.453 135.859 300.148 134.534 299.825 133.213L275.562 139.15C275.831 140.246 276.084 141.346 276.321 142.45L300.74 137.188Z" fill="#E6E6E6"></path>
<path d="M296.419 121.441C295.987 120.151 295.537 118.868 295.069 117.591L271.615 126.185C272.003 127.245 272.377 128.31 272.735 129.38L296.419 121.441Z" fill="#E6E6E6"></path>
<path d="M290.429 106.387C289.858 105.153 289.269 103.927 288.663 102.71L266.299 113.835C266.802 114.845 267.29 115.863 267.765 116.887L290.429 106.387Z" fill="#E6E6E6"></path>
<path d="M282.665 91.8288C281.958 90.6668 281.236 89.5146 280.497 88.3727L259.522 101.936C260.135 102.884 260.734 103.84 261.32 104.804L282.665 91.8288Z" fill="#E6E6E6"></path>
<path d="M273.595 78.5968C272.766 77.5188 271.922 76.4523 271.064 75.3977L251.692 91.1677C252.405 92.0429 253.105 92.928 253.793 93.8227L273.595 78.5968Z" fill="#E6E6E6"></path>
<path d="M264.181 65.673C263.249 64.6821 262.304 63.7042 261.346 62.7396L243.627 80.346C244.423 81.1465 245.207 81.9581 245.98 82.7805L264.181 65.673Z" fill="#E6E6E6"></path>
<path d="M252.797 54.7929C251.765 53.9075 250.721 53.0364 249.665 52.1799L233.933 71.5822C234.809 72.293 235.676 73.0159 236.533 73.7508L252.797 54.7929Z" fill="#E6E6E6"></path>
<path d="M239.309 44.5125C238.182 43.7519 237.044 43.007 235.896 42.278L222.506 63.3643C223.459 63.9693 224.403 64.5875 225.338 65.2188L239.309 44.5125Z" fill="#E6E6E6"></path>
<path d="M224.871 34.6889C223.665 34.062 222.449 33.4518 221.225 32.8587L210.33 55.3359C211.346 55.8282 212.354 56.3346 213.356 56.8549L224.871 34.6889Z" fill="#4686FE"></path>
<path d="M210.395 28.1376C209.128 27.6447 207.853 27.1695 206.573 26.712L198.169 50.2347C199.232 50.6144 200.29 51.0088 201.342 51.4179L210.395 28.1376Z" fill="#4686FE"></path>
<path d="M194.828 22.4427C193.514 22.0939 192.195 21.7635 190.871 21.4514L185.138 45.7633C186.237 46.0223 187.332 46.2966 188.422 46.586L194.828 22.4427Z" fill="#4686FE"></path>
<path d="M179.033 19.1678C177.688 18.9653 176.34 18.7815 174.991 18.6164L171.958 43.4104C173.079 43.5474 174.197 43.6999 175.313 43.868L179.033 19.1678Z" fill="#4686FE"></path>
<path d="M162.24 17.0205C160.881 16.9678 159.521 16.9339 158.161 16.9189L157.886 41.8961C159.015 41.9085 160.143 41.9366 161.271 41.9804L162.24 17.0205Z" fill="#4686FE"></path>
<path d="M146.475 17.2554C145.118 17.3486 143.763 17.4606 142.409 17.5915L144.813 42.4543C145.936 42.3457 147.061 42.2527 148.187 42.1753L146.475 17.2554Z" fill="#4686FE"></path>
<path d="M130.358 19.2633C129.02 19.5058 127.685 19.7668 126.354 20.0463L131.488 44.4917C132.593 44.2597 133.7 44.0431 134.811 43.8418L130.358 19.2633Z" fill="#4686FE"></path>
<path d="M114.413 23.0814C113.11 23.4715 111.813 23.8796 110.521 24.3057L118.348 48.0266C119.42 47.673 120.496 47.3343 121.577 47.0106L114.413 23.0814Z" fill="#4686FE"></path>
<path d="M98.6413 28.8043C97.3916 29.3404 96.1493 29.8938 94.9149 30.4644L105.396 53.1379C106.42 52.6644 107.451 52.2051 108.488 51.7601L98.6413 28.8043Z" fill="#4686FE"></path>
<path d="M84.5137 35.785C83.3286 36.4519 82.1528 37.1352 80.9866 37.8348L93.8363 59.2549C94.8041 58.6743 95.7799 58.1072 96.7635 57.5537L84.5137 35.785Z" fill="#4686FE"></path>
<path d="M69.5725 43.7338C68.4725 44.5333 67.3836 45.348 66.3062 46.1777L81.5469 65.968C82.4411 65.2794 83.3448 64.6033 84.2577 63.9397L69.5725 43.7338Z" fill="#4686FE"></path>
<path d="M57.0946 53.8933C56.0886 54.8083 55.0954 55.7373 54.1152 56.6799L71.4295 74.6841C72.243 73.9018 73.0673 73.1308 73.9022 72.3714L57.0946 53.8933Z" fill="#4686FE"></path>
<path d="M45.7211 65.1385C44.7905 66.1301 43.8738 67.1346 42.9711 68.1517L61.6533 84.7321C62.4024 83.888 63.1633 83.0544 63.9356 82.2314L45.7211 65.1385Z" fill="#4686FE"></path>
<path d="M35.3546 77.4776C34.5383 78.5652 33.7371 79.6641 32.9514 80.774L53.3377 95.2077C53.9898 94.2866 54.6547 93.3746 55.3322 92.472L35.3546 77.4776Z" fill="#4686FE"></path>
<path d="M26.3287 90.9997C25.6376 92.1709 24.9628 93.3516 24.3045 94.5415L46.1611 106.634C46.7074 105.646 47.2675 104.666 47.8411 103.694L26.3287 90.9997Z" fill="#4686FE"></path>
<path d="M18.498 106.238C17.948 107.482 17.4153 108.733 16.9 109.992L40.0162 119.456C40.4438 118.412 40.8859 117.373 41.3424 116.341L18.498 106.238Z" fill="#4686FE"></path>
<path d="M12.7879 121.342C12.3777 122.638 11.9856 123.94 11.6116 125.248L35.627 132.118C35.9374 131.033 36.2628 129.952 36.6032 128.876L12.7879 121.342Z" fill="#4686FE"></path>
<path d="M8.8614 136.53C8.59185 137.863 8.34082 139.199 8.10839 140.539L32.7195 144.808C32.9124 143.696 33.1208 142.587 33.3445 141.481L8.8614 136.53Z" fill="#4686FE"></path>
<path d="M6.48562 153.071C6.36922 154.426 6.27164 155.782 6.19292 157.14L31.1297 158.586C31.1951 157.459 31.276 156.334 31.3726 155.209L6.48562 153.071Z" fill="#4686FE"></path>
</svg>