<svg xmlns="http://www.w3.org/2000/svg" width="309" height="180" viewBox="0 0 309 180" fill="none" id="svg1144980458_4500">
<path d="M304.594 139.077C296.367 105.271 276.99 75.2221 249.589 53.7803C222.188 32.3385 188.361 20.7542 153.569 20.8967C118.776 21.0392 85.0455 32.9002 57.821 54.5657C30.5965 76.2312 11.4657 106.437 3.51562 140.31L64.1745 154.547C68.9243 134.31 80.354 116.263 96.6193 103.319C112.885 90.3749 133.037 83.2885 153.824 83.2034C174.611 83.1183 194.82 90.0393 211.191 102.85C227.562 115.66 239.139 133.613 244.054 153.81L304.594 139.077Z" fill="#E9ECF1"></path>
<path d="M108.507 27.7959C82.8026 35.7381 59.6122 50.2429 41.2227 69.8801C22.8332 89.5172 9.87972 113.608 3.63958 139.778L64.2476 154.23C67.9758 138.595 75.7148 124.202 86.7017 112.469C97.6885 100.737 111.544 92.0713 126.901 87.3263L108.507 27.7959Z" fill="url(#svg1144980458_4500_paint0_linear_14764_252)"></path>
<path d="M139.155 161.961C136.67 161.961 134.456 161.504 132.51 160.59C130.577 159.676 129.042 158.417 127.905 156.811C126.769 155.206 126.177 153.366 126.13 151.292H133.512C133.594 152.687 134.18 153.817 135.27 154.685C136.36 155.552 137.655 155.985 139.155 155.985C140.35 155.985 141.404 155.722 142.318 155.194C143.244 154.655 143.965 153.911 144.48 152.962C145.008 152.001 145.271 150.9 145.271 149.658C145.271 148.392 145.002 147.279 144.463 146.318C143.935 145.357 143.203 144.607 142.266 144.068C141.328 143.529 140.256 143.254 139.049 143.242C137.994 143.242 136.969 143.459 135.973 143.892C134.989 144.326 134.221 144.918 133.671 145.668L126.903 144.455L128.608 125.472H150.615V131.694H134.883L133.952 140.711H134.163C134.795 139.82 135.75 139.082 137.028 138.496C138.305 137.91 139.735 137.617 141.316 137.617C143.484 137.617 145.418 138.127 147.117 139.147C148.816 140.166 150.158 141.566 151.142 143.348C152.126 145.117 152.613 147.156 152.601 149.464C152.613 151.89 152.05 154.046 150.913 155.933C149.789 157.807 148.212 159.284 146.185 160.362C144.17 161.428 141.826 161.961 139.155 161.961Z" fill="#595959"></path>
<path d="M171.338 161.961C168.631 161.961 166.223 161.522 164.114 160.643C162.016 159.753 160.37 158.54 159.175 157.005C157.979 155.47 157.382 153.73 157.382 151.784C157.382 150.285 157.722 148.908 158.401 147.654C159.093 146.388 160.03 145.34 161.214 144.508C162.397 143.664 163.721 143.125 165.186 142.891V142.644C163.264 142.258 161.706 141.326 160.51 139.85C159.315 138.362 158.718 136.633 158.718 134.665C158.718 132.801 159.262 131.143 160.352 129.69C161.442 128.226 162.936 127.077 164.834 126.245C166.744 125.401 168.912 124.98 171.338 124.98C173.763 124.98 175.925 125.401 177.824 126.245C179.734 127.089 181.234 128.243 182.323 129.708C183.413 131.161 183.964 132.813 183.976 134.665C183.964 136.645 183.355 138.373 182.148 139.85C180.941 141.326 179.394 142.258 177.507 142.644V142.891C178.949 143.125 180.255 143.664 181.427 144.508C182.61 145.34 183.548 146.388 184.239 147.654C184.942 148.908 185.3 150.285 185.311 151.784C185.3 153.73 184.696 155.47 183.501 157.005C182.306 158.54 180.654 159.753 178.544 160.643C176.447 161.522 174.045 161.961 171.338 161.961ZM171.338 156.372C172.545 156.372 173.599 156.155 174.502 155.722C175.404 155.276 176.107 154.667 176.611 153.894C177.126 153.109 177.384 152.206 177.384 151.187C177.384 150.144 177.121 149.224 176.593 148.427C176.066 147.619 175.351 146.986 174.449 146.529C173.547 146.06 172.51 145.826 171.338 145.826C170.178 145.826 169.141 146.06 168.227 146.529C167.313 146.986 166.592 147.619 166.065 148.427C165.549 149.224 165.291 150.144 165.291 151.187C165.291 152.206 165.543 153.109 166.047 153.894C166.551 154.667 167.26 155.276 168.174 155.722C169.088 156.155 170.143 156.372 171.338 156.372ZM171.338 140.289C172.346 140.289 173.242 140.084 174.027 139.674C174.812 139.264 175.427 138.695 175.873 137.969C176.318 137.242 176.541 136.405 176.541 135.455C176.541 134.518 176.318 133.698 175.873 132.995C175.427 132.28 174.818 131.723 174.045 131.325C173.271 130.915 172.369 130.71 171.338 130.71C170.318 130.71 169.416 130.915 168.631 131.325C167.846 131.723 167.231 132.28 166.785 132.995C166.352 133.698 166.135 134.518 166.135 135.455C166.135 136.405 166.358 137.242 166.803 137.969C167.248 138.695 167.863 139.264 168.649 139.674C169.434 140.084 170.33 140.289 171.338 140.289Z" fill="#595959"></path>
<defs>
<linearGradient id="svg1144980458_4500_paint0_linear_14764_252" x1="156.683" y1="30.8085" x2="202.299" y2="141.391" gradientUnits="userSpaceOnUse">
<stop offset="0.158001" stop-color="#4686FE"></stop>
<stop offset="0.895779" stop-color="#659BFF"></stop>
</linearGradient>
</defs>
</svg>