<svg xmlns="http://www.w3.org/2000/svg" width="240" height="41" viewBox="0 0 240 41" fill="none" id="svg704382748_6586">
<g clip-path="url(#svg704382748_6586_clip0_14760_32)">
<path d="M39.1457 33.3658L39.1487 33.3692L32.6786 39.0462C31.352 40.239 29.6367 40.9147 27.8486 40.948L27.8336 40.9483H5.66117C4.84039 40.9828 4.02249 40.8292 3.27077 40.4992C2.50576 40.1635 1.82992 39.6544 1.29769 39.0121C0.765424 38.37 0.391725 37.6131 0.206 36.802C0.0237281 36.0047 0.0276835 35.1756 0.218429 34.3799L1.92551 25.6879C2.07737 24.9313 2.47871 24.2464 3.06615 23.7423L3.14986 23.6705C2.96814 23.3962 2.83522 23.0923 2.75728 22.7721C2.65389 22.3474 2.65028 21.9055 2.74551 21.4805L4.45598 12.7723L4.45862 12.7599C4.7915 11.1973 5.62996 9.78656 6.84569 8.74358L12.7695 3.54592C13.0436 3.23284 13.3445 2.9412 13.67 2.67458C14.9667 1.61241 16.5803 1.00756 18.2588 0.954017L18.2867 0.953125L40.486 1.01667C41.3059 0.982587 42.1228 1.13631 42.8737 1.46584C43.6388 1.80161 44.3146 2.31076 44.8468 2.9529C45.379 3.59494 45.7528 4.35191 45.9385 5.16336C46.121 5.96088 46.1167 6.78933 45.9263 7.58461L41.686 29.2301L41.6799 29.2564C41.3075 30.8649 40.4173 32.3076 39.1457 33.3658Z" fill="#CCCCCC"></path>
<path d="M40.1375 3.01672C40.7207 2.98729 41.3027 3.09478 41.837 3.33042C42.3713 3.56605 42.8431 3.92332 43.2147 4.37382C43.5862 4.82431 43.8472 5.35542 43.9769 5.92479C44.1065 6.49416 44.1012 7.08602 43.9613 7.65295L39.7392 29.3122C39.4426 30.5991 38.7286 31.7518 37.7084 32.5904C36.6882 33.429 35.4191 33.9065 34.0991 33.9484H12.0088C11.4255 33.9775 10.8434 33.87 10.3089 33.6344C9.77442 33.3987 9.30234 33.0416 8.93023 32.5914C8.55812 32.1411 8.29625 31.6102 8.1655 31.041C8.03476 30.4717 8.03875 29.8797 8.17712 29.3122L9.8819 20.5497C9.98186 20.122 10.2204 19.7394 10.5604 19.4614C10.9004 19.1833 11.3228 19.0254 11.7619 19.0123C15.7928 19.1557 19.6644 19.4584 23.2731 20.7568L24.0697 25.7674C24.0892 25.8884 24.153 25.9978 24.2487 26.0743C24.3444 26.1509 24.4651 26.1892 24.5875 26.1817C24.728 26.1792 24.8655 26.1397 24.9858 26.0669C25.1061 25.9942 25.2051 25.8908 25.2726 25.7674L27.997 20.7568L33.4459 19.0362C33.5777 18.994 33.6963 18.9183 33.7899 18.8163C33.8835 18.7143 33.9489 18.5897 33.9796 18.4548C34.0108 18.3354 33.9961 18.2087 33.9386 18.0996C33.8812 17.9905 33.785 17.907 33.6689 17.8653L28.8892 16.1525L28.0926 11.1421C28.0732 11.0204 28.0096 10.9101 27.9142 10.8323C27.8187 10.7544 27.6979 10.7144 27.5748 10.7199C27.4334 10.7231 27.2954 10.7639 27.175 10.8381C27.0546 10.9123 26.9561 11.0172 26.8897 11.1421L24.1653 16.1525C20.2146 17.2857 16.1268 17.8702 12.0168 17.8892C11.8195 17.906 11.6211 17.8756 11.4378 17.8007C11.2545 17.7259 11.0916 17.6087 10.9625 17.4586C10.8334 17.3085 10.7418 17.1298 10.6952 16.9374C10.6486 16.745 10.6483 16.5442 10.6944 16.3516L12.3992 7.58916C12.6941 6.30289 13.4066 5.15047 14.4255 4.31177C15.4444 3.47306 16.7123 2.99541 18.0313 2.95312L40.1375 3.01672Z" fill="#CCCCCC"></path>
<path d="M176.025 31.9559C171.929 31.9559 169.023 30.2856 168.107 27.1342L173.463 24.7077C173.843 25.9997 174.953 26.5985 176.969 26.5985C178.537 26.5985 179.805 26.1258 179.982 25.1173C180.205 23.8568 178.958 23.6677 177.056 23.3841C173.907 22.9114 169.388 21.6823 170.283 16.6086C170.972 12.7009 175.052 9.70703 179.852 9.70703C183.628 9.70703 186.533 11.3773 187.45 14.5287L182.094 16.9553C181.669 15.9153 180.667 15.0644 178.651 15.0644C177.243 15.0644 176.397 15.5056 176.242 16.388C176.031 17.5855 177.372 17.9637 179.428 18.2788C182.545 18.7516 186.814 19.9491 185.914 25.0543C185.225 28.962 180.825 31.9559 176.025 31.9559Z" fill="#CCCCCC"></path>
<path d="M208.57 31.4516H214.586L219.317 16.4195L220.514 28.8675C220.677 30.6638 222.121 31.5462 223.881 31.5462C225.673 31.5462 227.339 30.6323 228.216 28.7414L233.807 16.451L232.89 31.4516H238.874L239.448 13.6778C239.52 11.0937 238.036 9.70703 235.508 9.70703C233.204 9.70703 231.069 10.747 230.044 13.1106L225.159 24.298L224.205 13.016C224.014 10.6525 222.292 9.70703 220.052 9.70703C217.46 9.70703 215.429 11.0622 214.569 13.5833L208.57 31.4516Z" fill="#CCCCCC"></path>
<path d="M188.501 21.8408C187.39 28.1436 189.78 31.8307 196.564 31.8307C203.316 31.8307 207.07 28.1436 208.181 21.8408L210.237 10.1807H204.317L202.289 21.6832C201.711 24.9607 200.192 26.3158 197.536 26.3158C194.912 26.3158 193.871 24.9607 194.449 21.6832L196.477 10.1807H190.557L188.501 21.8408Z" fill="#CCCCCC"></path>
<path fill-rule="evenodd" clip-rule="evenodd" d="M148.221 31.4525L154.147 31.421L155.058 26.2528H157.746C164.018 26.2528 168.104 23.2274 169.004 18.1222C169.876 13.1745 166.66 10.1807 160.26 10.1807H151.972L148.221 31.4525ZM156.947 15.538H159.475C162.035 15.538 163.218 16.4519 162.924 18.1222C162.607 19.9185 161.187 20.8954 158.531 20.8954H156.003L156.947 15.538Z" fill="#CCCCCC"></path>
<path d="M142.222 10.1807H148.142L144.391 31.4525H138.471L142.222 10.1807Z" fill="#CCCCCC"></path>
<path fill-rule="evenodd" clip-rule="evenodd" d="M115.305 20.8321C114.188 27.1664 118.213 31.925 124.741 31.925C131.269 31.925 136.972 27.1664 138.089 20.8321C139.206 14.4979 135.181 9.73926 128.653 9.73926C122.125 9.73926 116.422 14.4979 115.305 20.8321ZM132.009 20.8321C131.453 23.9835 128.721 26.4101 125.713 26.4101C122.705 26.4101 120.829 23.9835 121.385 20.8321C121.941 17.6808 124.672 15.2542 127.68 15.2542C130.688 15.2542 132.565 17.6808 132.009 20.8321Z" fill="#CCCCCC"></path>
<path d="M102.926 31.925C96.4621 31.925 92.3954 27.0404 93.4901 20.8321C94.5848 14.6239 100.31 9.73926 106.838 9.73926C110.678 9.73926 114.11 11.6931 115.05 15.2542L109.751 17.9014C109.138 16.2941 108.111 15.2227 105.615 15.2227C102.575 15.2227 100.143 17.5862 99.5534 20.9267C98.9366 24.4247 100.59 26.6622 103.854 26.6622C105.582 26.6622 106.698 26.5046 107.77 25.6853L108.266 22.7543L102.727 20.3067H114.423L114.258 21.3048H114.271L114.088 22.3405L114.077 22.4088L114.076 22.4093L113.159 27.6076C111.051 30.1287 107.278 31.925 102.926 31.925Z" fill="#CCCCCC"></path>
<path fill-rule="evenodd" clip-rule="evenodd" d="M70.0507 20.8321C68.9338 27.1664 72.9587 31.925 79.4867 31.925C86.0147 31.925 91.7178 27.1664 92.8347 20.8321C93.9516 14.4979 89.9267 9.73926 83.3987 9.73926C76.8707 9.73926 71.1676 14.4979 70.0507 20.8321ZM86.7547 20.8321C86.199 23.9835 83.4672 26.4101 80.4592 26.4101C77.4512 26.4101 75.575 23.9835 76.1307 20.8321C76.6864 17.6808 79.4183 15.2542 82.4263 15.2542C85.4343 15.2542 87.3104 17.6808 86.7547 20.8321Z" fill="#CCCCCC"></path>
<path d="M62.3868 10.1807L59.5806 26.0952H69.1166L68.172 31.4525H57.836C54.188 31.4525 53.0494 29.5617 53.5773 26.5679L56.4668 10.1807H62.3868Z" fill="#CCCCCC"></path>
</g>
<defs>
<clipPath id="svg704382748_6586_clip0_14760_32">
<rect width="240" height="41" fill="white"></rect>
</clipPath>
</defs>
</svg>