<svg xmlns="http://www.w3.org/2000/svg" width="235" height="41" viewBox="0 0 235 41" fill="none" id="svg-2070733056_10750">
<g clip-path="url(#svg-2070733056_10750_clip0_14760_28)">
<path d="M90.4127 12.7432C90.4127 20.3627 90.4127 23.3706 80.3047 23.3706C90.4127 23.3706 90.4127 26.3784 90.4127 33.998C90.4127 26.4237 90.4127 23.3706 100.362 23.3706C90.4127 23.3706 90.4127 20.3175 90.4127 12.7432Z" fill="#CCCCCC"></path>
<path fill-rule="evenodd" clip-rule="evenodd" d="M40.5766 40.3689C37.0808 40.3689 34.0075 39.6698 31.3566 38.2715C28.7347 36.8441 26.681 34.8632 25.1954 32.3288C24.9561 31.9076 24.7364 31.475 24.5364 31.031L23.3625 39.7571H0.0722656V39.3203H0.116003C1.16468 39.3203 2.00949 39.0434 2.65035 38.49C3.29121 37.9365 3.61164 37.1355 3.61164 36.0867V10.9175C3.61164 9.86887 3.29121 9.02397 2.65035 8.38311C2.00949 7.74225 1.16468 7.42182 0.116003 7.42182H0.0722656V6.98482H14.0115V7.42182H13.8367C12.7879 7.42182 11.9431 7.74225 11.3023 8.38311C10.6614 9.02397 10.341 9.86887 10.341 10.9175V36.2615C10.341 37.1937 10.5595 37.922 10.9964 38.4463C11.4625 38.9415 12.2636 39.1891 13.3997 39.1891H14.3173C16.91 39.1891 19.0948 38.3881 20.8718 36.7858C22.605 35.2231 23.7146 33.037 24.2007 30.2274C23.4072 28.172 23.0106 25.8865 23.0106 23.3711C23.0106 19.9627 23.7388 16.9914 25.1954 14.4569C26.681 11.8934 28.7347 9.91242 31.3566 8.51413C34.0075 7.08675 37.0808 6.37305 40.5766 6.37305C43.9881 6.37305 46.9833 7.05283 49.5625 8.4122C52.3136 7.05283 55.5086 6.37305 59.1476 6.37305C60.2837 6.37305 61.2158 6.41679 61.9441 6.50408C62.7015 6.56246 63.3716 6.63529 63.9541 6.72258C64.5368 6.81005 65.1777 6.89734 65.8768 6.98482C66.6051 7.04301 67.5082 7.07211 68.586 7.07211L69.8969 15.8116H69.4599C68.9355 13.0441 67.7558 10.8738 65.9206 9.30066C64.1144 7.72761 61.8567 6.94108 59.1476 6.94108C57.4871 6.94108 55.9723 7.33434 54.6031 8.12087C53.7012 8.63904 52.8877 9.28991 52.1628 10.0737C51.8254 10.4382 51.5072 10.8317 51.2082 11.2539C51.1745 11.3015 51.1409 11.3495 51.1077 11.398C50.8266 11.8152 50.563 12.2574 50.3168 12.7246C49.9928 13.3393 49.6989 13.998 49.4354 14.6989C49.3263 14.9882 49.2225 15.2851 49.1239 15.5894C49.0222 15.9032 48.9259 16.2249 48.8352 16.5544C48.3108 18.5644 48.0487 20.793 48.0487 23.2399C48.0487 25.4955 48.2541 27.5697 48.6651 29.4628L47.9706 31.5253C47.6072 32.6046 47.1722 33.5489 46.6724 34.3669C46.3648 34.8523 46.0391 35.2881 45.6967 35.6771L45.664 35.7144C44.5824 34.7292 43.6585 33.6007 42.8925 32.3288C41.3485 29.7652 40.5766 26.7501 40.5766 23.2836C40.5766 19.9044 41.3485 16.9477 42.8925 14.4133C43.9466 12.6827 45.2861 11.2172 46.9107 10.0164C46.254 9.25414 45.5264 8.62236 44.7277 8.12087C43.4751 7.33434 42.0913 6.94108 40.5766 6.94108C39.0617 6.94108 37.678 7.33434 36.4253 8.12087C35.1727 8.9074 34.1095 10.0144 33.2355 11.442C32.3325 12.8694 31.6333 14.6025 31.1381 16.6417C30.672 18.6517 30.4389 20.8803 30.4389 23.3273C30.4389 25.7744 30.672 28.0028 31.1381 30.0128C31.6333 32.0229 32.3325 33.7416 33.2355 35.169C34.1095 36.5966 35.1727 37.7035 36.4253 38.49C37.678 39.2766 39.0617 39.6698 40.5766 39.6698C42.0913 39.6698 43.4751 39.2766 44.7277 38.49C45.9803 37.7035 47.0582 36.5966 47.9612 35.169C48.8352 33.7416 49.5051 32.0229 49.9712 30.0128C50.4665 28.0028 50.7141 25.7744 50.7141 23.3273C50.7141 21.1149 50.5117 19.081 50.1068 17.2258L50.8565 15.2325C51.2832 14.0979 51.7875 13.1075 52.3629 12.252C52.5166 12.0287 52.6754 11.8156 52.8392 11.6123C52.9815 11.4355 53.1276 11.2663 53.2775 11.1043L53.3103 11.0767C54.3247 12.0606 55.1925 13.1872 55.914 14.4569C57.3997 16.9914 58.1425 19.9627 58.1425 23.3711C58.1425 26.7794 57.3997 29.7652 55.914 32.3288C54.9265 34.047 53.6645 35.5109 52.128 36.7204C52.7731 37.4264 53.4816 38.0163 54.2536 38.49C55.5645 39.2766 57.021 39.6698 58.6232 39.6698C59.8176 39.6698 60.9537 39.466 62.0316 39.0581C63.1385 38.6502 63.9833 38.1405 64.5659 37.5287V26.3862C64.5659 25.3374 64.2455 24.4925 63.6046 23.8516C62.9637 23.2108 62.1189 22.8903 61.0702 22.8903H60.9392V22.4533H72.8651C72.9854 19.4266 73.7076 16.7612 75.032 14.4569C76.5176 11.8934 78.5714 9.91242 81.1931 8.51413C83.8441 7.08675 86.9174 6.37305 90.4132 6.37305C93.9088 6.37305 96.9676 7.08675 99.5893 8.51413C102.24 9.91242 104.294 11.8934 105.751 14.4569C106.708 16.0898 107.357 17.9041 107.697 19.8997V10.9175C107.697 9.86887 107.377 9.02397 106.736 8.38311C106.095 7.74225 105.25 7.42182 104.201 7.42182H104.158V6.98482H130.449C132.692 7.01391 134.644 7.40718 136.304 8.16461C137.994 8.89294 139.304 9.91242 140.237 11.2235C140.588 11.7018 140.874 12.2114 141.097 12.752C141.455 11.0645 142.325 9.68095 143.706 8.60161C145.6 7.11584 148.091 6.37305 151.178 6.37305C151.936 6.37305 152.548 6.40215 153.014 6.46053C153.211 6.48369 153.403 6.50908 153.591 6.53688C153.875 6.57895 154.149 6.62621 154.412 6.67884C154.878 6.76632 155.417 6.83915 156.029 6.89734C156.641 6.95572 157.427 6.98482 158.388 6.98482H172.192V7.42182H172.061C171.012 7.42182 170.168 7.74225 169.527 8.38311C168.886 9.02397 168.565 9.86887 168.565 10.9175V28.265C168.565 31.3529 169.352 33.8 170.925 35.606C172.527 37.3831 174.683 38.2715 177.392 38.2715C180.13 38.2715 182.286 37.3684 183.859 35.5624C185.432 33.7271 186.219 31.2947 186.219 28.265V11.573C186.219 10.3204 185.84 9.32994 185.083 8.60161C184.325 7.87327 183.32 7.48001 182.068 7.42182V6.98482H196.489L207.151 31.6733L217.813 6.98482H225.984V7.42182C225.052 7.42182 224.265 7.69851 223.624 8.25208C222.983 8.80547 222.692 9.5629 222.75 10.5242L224.979 36.3925C225.124 37.3831 225.59 38.1259 226.377 38.6211C227.193 39.1163 227.994 39.3639 228.78 39.3639V39.7571H215.234V39.3639C215.73 39.3639 216.239 39.2475 216.764 39.0143C217.288 38.7814 217.711 38.4463 218.031 38.0093C218.381 37.5723 218.512 37.0626 218.424 36.48L216.283 12.3595L204.136 40.3689L191.901 12.3158L189.847 35.3002C189.73 36.4653 190.065 37.4122 190.852 38.1405C191.638 38.8687 192.6 39.2619 193.736 39.3203V39.7571H184.997V39.3203C186.103 39.2619 187.036 38.8542 187.793 38.0968C188.551 37.3393 188.987 36.3925 189.104 35.2565L191.289 11.0923C190.735 9.95616 190.036 9.06771 189.191 8.42685C189.047 8.30842 188.896 8.20056 188.736 8.10308C188.507 8.24689 188.294 8.41295 188.098 8.60161C187.34 9.32994 186.962 10.3204 186.962 11.573V28.265C186.962 30.7121 186.452 32.8387 185.432 34.6447C184.442 36.4509 183 37.8636 181.106 38.8833C179.242 39.8737 177.013 40.3689 174.421 40.3689C171.857 40.3689 169.629 39.8737 167.735 38.8833C165.842 37.8927 164.37 36.4944 163.322 34.6884C162.302 32.8531 161.792 30.7121 161.792 28.265V10.9175C161.792 9.86887 161.472 9.02397 160.831 8.38311C160.213 7.76541 159.406 7.44554 158.41 7.42312L158.825 15.8116H158.388C157.981 13.1023 157.107 10.9612 155.767 9.38814C154.426 7.81508 152.81 7.02855 150.916 7.02855C149.576 7.02855 148.498 7.42182 147.683 8.20834C146.896 8.99487 146.503 10.0437 146.503 11.3545C146.503 12.4905 146.867 13.583 147.595 14.6318C148.353 15.6513 149.649 16.8457 151.484 18.2149L153.363 19.6132C155.286 21.0115 156.801 22.3077 157.908 23.5021C159.044 24.6673 159.859 25.8035 160.355 26.9104C160.85 28.0174 161.098 29.1972 161.098 30.4498C161.098 32.3724 160.617 34.0767 159.655 35.5622C158.694 37.048 157.354 38.2132 155.635 39.0581C153.946 39.8737 151.95 40.3107 149.649 40.3689C148.892 40.3689 148.265 40.3398 147.77 40.2816C147.304 40.2232 146.838 40.1504 146.372 40.0631C145.906 39.9756 145.338 39.9028 144.668 39.8446C143.998 39.7864 143.08 39.7571 141.915 39.7571L140.385 28.396H140.91C141.347 31.9791 142.337 34.7466 143.881 36.6985C145.454 38.6211 147.464 39.5824 149.911 39.5824C151.717 39.5824 153.188 39.0727 154.325 38.053C155.461 37.0334 156.029 35.7079 156.029 34.0767C156.029 33.3774 155.898 32.7075 155.635 32.0666C155.402 31.4258 154.995 30.7412 154.412 30.0128C153.829 29.2847 153.057 28.4981 152.096 27.6532C151.135 26.7794 149.94 25.8035 148.513 24.7256L146.721 23.3711C144.537 21.7106 143.022 20.2248 142.177 18.914C141.91 18.5 141.685 18.0743 141.503 17.6369C141.284 18.694 140.862 19.6586 140.237 20.5308C139.304 21.8416 137.964 22.8759 136.217 23.6331C134.498 24.3615 132.459 24.7256 130.099 24.7256H126.079V35.8245C126.079 36.8732 126.399 37.718 127.04 38.3588C127.681 38.9999 128.526 39.3203 129.575 39.3203H129.662V39.7571H104.158V39.3203H104.201C105.25 39.3203 106.095 38.9999 106.736 38.3588C107.377 37.718 107.697 36.8732 107.697 35.8245V26.848C107.357 28.8503 106.708 30.6772 105.751 32.3288C104.294 34.8632 102.24 36.8441 99.5893 38.2715C96.9676 39.6698 93.9088 40.3689 90.4132 40.3689C86.9174 40.3689 83.8441 39.6698 81.1931 38.2715C78.5714 36.8441 76.5176 34.8632 75.032 32.3288C73.5814 29.7758 72.8531 26.8041 72.8471 23.4131C72.6508 23.5373 72.4684 23.6834 72.3002 23.8516C71.6593 24.4925 71.3389 25.3374 71.3389 26.3862V37.5287C70.7563 38.1112 69.8241 38.6211 68.5423 39.0581C67.2897 39.466 65.8623 39.7864 64.26 40.0194C62.687 40.2525 61.1139 40.3689 59.5409 40.3689C55.7383 40.3689 52.4268 39.6956 49.6064 38.3486C47.0173 39.6956 44.0073 40.3689 40.5766 40.3689ZM94.5643 38.49C93.3117 39.2766 91.9279 39.6698 90.4132 39.6698C88.8983 39.6698 87.5146 39.2766 86.2619 38.49C85.0093 37.7035 83.9461 36.5966 83.0721 35.169C82.1691 33.7416 81.4699 32.0229 80.9746 30.0128C80.5086 28.0028 80.2755 25.7744 80.2755 23.3273C80.2755 20.8803 80.5086 18.6517 80.9746 16.6417C81.4699 14.6025 82.1691 12.8694 83.0721 11.442C83.9461 10.0144 85.0093 8.9074 86.2619 8.12087C87.5146 7.33434 88.8983 6.94108 90.4132 6.94108C91.9279 6.94108 93.3117 7.33434 94.5643 8.12087C95.8169 8.9074 96.8948 10.0144 97.7978 11.442C98.6718 12.8694 99.3417 14.6025 99.8078 16.6417C100.303 18.6517 100.551 20.8803 100.551 23.3273C100.551 25.7744 100.303 28.0028 99.8078 30.0128C99.3417 32.0229 98.6718 33.7416 97.7978 35.169C96.8948 36.5966 95.8169 37.7035 94.5643 38.49ZM118.388 38.3588C117.979 38.7684 117.486 39.0471 116.91 39.195C116.334 39.0471 115.841 38.7684 115.431 38.3588C114.791 37.718 114.47 36.8732 114.47 35.8245V10.9175C114.47 9.86887 114.791 9.02397 115.431 8.38311C115.841 7.97354 116.334 7.6948 116.91 7.5471C117.486 7.6948 117.979 7.97354 118.388 8.38311C119.029 9.02397 119.35 9.86887 119.35 10.9175V35.8245C119.35 36.8732 119.029 37.718 118.388 38.3588ZM128.657 24.1576H126.079V7.55284H128.613C129.866 7.55284 130.958 7.91701 131.891 8.64535C132.823 9.3444 133.537 10.3204 134.032 11.573C134.556 12.8256 134.818 14.253 134.818 15.8552C134.818 17.4575 134.556 18.8849 134.032 20.1375C133.537 21.3901 132.823 22.3805 131.891 23.1088C130.988 23.8081 129.91 24.1576 128.657 24.1576Z" fill="#CCCCCC"></path>
<path d="M234.534 3.4048C234.534 5.08176 233.175 6.44119 231.498 6.44119C229.821 6.44119 228.461 5.08176 228.461 3.4048C228.461 1.72785 229.821 0.368408 231.498 0.368408C233.175 0.368408 234.534 1.72785 234.534 3.4048Z" fill="#CCCCCC"></path>
</g>
<defs>
<clipPath id="svg-2070733056_10750_clip0_14760_28">
<rect width="235" height="41" fill="white"></rect>
</clipPath>
</defs>
</svg>