<svg xmlns="http://www.w3.org/2000/svg" width="272" height="41" viewBox="0 0 272 41" fill="none" id="svg-725368330_22757">
<g clip-path="url(#svg-725368330_22757_clip0_14760_44)">
<path d="M27.8314 1.64786C25.8494 0.989907 23.7296 0.633789 21.5267 0.633789C18.076 0.633789 14.8293 1.50777 11.9961 3.04629C12.5571 3.22529 13.1008 3.44319 13.6237 3.69703C16.024 2.57502 18.7022 1.94844 21.5267 1.94844C23.2041 1.94844 24.8298 2.16949 26.3765 2.58396C26.8319 2.23192 27.3185 1.91832 27.8314 1.64786Z" fill="#CCCCCC"></path>
<path d="M25.3512 3.49298C24.1201 3.21938 22.8401 3.0752 21.5264 3.0752C19.1656 3.0752 16.9136 3.54114 14.8574 4.38594C15.2996 4.66722 15.7229 4.9758 16.1245 5.30949C17.8146 4.71382 19.6327 4.3897 21.5264 4.3897C22.4998 4.3897 23.4533 4.47536 24.3797 4.63945C24.6748 4.23329 24.9998 3.85003 25.3512 3.49298Z" fill="#CCCCCC"></path>
<path d="M23.7203 5.67458C23.0041 5.57057 22.2718 5.5166 21.5268 5.5166C19.9763 5.5166 18.4805 5.75004 17.0723 6.1835C17.4106 6.52958 17.7286 6.89558 18.0244 7.27931C19.1428 6.98673 20.3166 6.8311 21.5268 6.8311C22.0712 6.8311 22.6082 6.86263 23.1362 6.92397C23.3027 6.4924 23.4983 6.0751 23.7203 5.67458Z" fill="#CCCCCC"></path>
<path d="M22.7848 8.01966C22.3711 7.97887 21.9514 7.95801 21.5271 7.95801C20.5605 7.95801 19.6194 8.0661 18.7148 8.27098C18.9574 8.65848 19.179 9.06056 19.3783 9.47535C20.074 9.34216 20.7924 9.27251 21.5271 9.27251C21.8683 9.27251 22.2062 9.28757 22.5397 9.31706C22.5934 8.87513 22.6757 8.44198 22.7848 8.01966Z" fill="#CCCCCC"></path>
<path d="M22.4659 10.442C22.1565 10.4137 21.8432 10.3994 21.5265 10.3994C20.9479 10.3994 20.3806 10.4474 19.8281 10.5397C19.9806 10.9529 20.1114 11.3765 20.2195 11.809C20.6461 11.7464 21.0823 11.7139 21.5263 11.7139C21.8435 11.7139 22.1567 11.7304 22.4652 11.7627V10.5402C22.4654 10.5074 22.4656 10.4746 22.4659 10.442Z" fill="#CCCCCC"></path>
<path d="M22.4661 12.8959C22.1583 12.8588 21.8448 12.8398 21.5272 12.8398C21.1594 12.8398 20.7975 12.8653 20.4434 12.9145C20.5096 13.3441 20.5537 13.781 20.5746 14.2238C20.8855 14.178 21.2037 14.1542 21.5273 14.1542C21.8463 14.1542 22.1597 14.1772 22.4662 14.2218L22.4661 12.8959Z" fill="#CCCCCC"></path>
<path d="M22.4658 15.3633C22.1609 15.3093 21.8472 15.2812 21.5268 15.2812C21.2065 15.2812 20.8927 15.3093 20.5879 15.3633V16.7056C20.8893 16.6338 21.2037 16.5957 21.5268 16.5957C21.85 16.5957 22.1646 16.6338 22.4658 16.7056V15.3633Z" fill="#CCCCCC"></path>
<path fill-rule="evenodd" clip-rule="evenodd" d="M41.527 20.4931L41.5276 4.85919C43.2389 4.85919 44.6262 3.4719 44.6262 1.76065V1.15039H32.5142C27.3286 1.15039 23.1247 5.35414 23.1247 10.54V20.1644L23.1239 20.6339C23.1239 21.5156 22.4093 22.2302 21.5277 22.2302C20.646 22.2302 19.9314 21.5156 19.9314 20.6339V14.9062C19.9314 8.39808 14.6555 3.12221 8.14735 3.12221H0.0722656V4.24892C0.0722656 4.72788 0.20028 5.17687 0.423991 5.56358H0.0722656V6.69029C0.0722656 7.16909 0.20028 7.61808 0.423991 8.0051H0.0722656V9.3196H0.0788543C0.107721 9.72796 0.229773 10.1106 0.423991 10.4463H0.0722656V11.7608H0.0788543C0.107721 12.1692 0.229773 12.5518 0.423991 12.8875H0.0722656V14.0142C0.0722656 14.493 0.20028 14.942 0.423991 15.3289H0.0722656V16.4556C0.0722656 17.4858 0.664802 18.3775 1.52764 18.8088V20.6339C1.52764 31.6795 10.4817 40.6339 21.5275 40.6339C32.5733 40.6339 41.5275 31.6795 41.5275 20.6339C41.5275 20.5869 41.5273 20.54 41.527 20.4931ZM40.2131 20.1644V17.6292C40.2131 17.0069 39.7086 16.5025 39.0864 16.5025V20.4931C39.0868 20.54 39.0863 20.5869 39.0863 20.6339C39.0863 30.3313 31.225 38.1926 21.5277 38.1926C11.8303 38.1926 3.96901 30.3313 3.96901 20.6339V19.0847H2.8423V20.6339C2.8423 30.9537 11.2081 39.3193 21.5277 39.3193C31.8472 39.3193 40.213 30.9535 40.213 20.6339C40.213 20.477 40.2111 20.3205 40.2072 20.1644H40.2131ZM37.7719 20.1644V17.6292C37.7719 17.0069 37.2674 16.5025 36.6452 16.5025V20.4931C36.6456 20.5399 36.6449 20.5868 36.6449 20.6338C36.6449 28.9829 29.8767 35.751 21.5277 35.751C13.1787 35.751 6.41022 28.9829 6.41022 20.6339V20.6107C6.41022 20.6027 6.41022 20.5949 6.41038 20.5869L6.41022 16.6432H2.70142C2.22262 16.6432 1.77363 16.5152 1.38692 16.2915V16.4554C1.38692 17.1815 1.97554 17.7699 2.70142 17.7699H5.28351V20.6339C5.28351 29.6053 12.5562 36.8781 21.5277 36.8781C30.4992 36.8781 37.7718 29.6054 37.7718 20.6339C37.7718 20.4769 37.7696 20.3205 37.7651 20.1644H37.7719ZM35.3307 20.1642V17.6292C35.3307 17.0069 34.8262 16.5025 34.204 16.5025V20.4931H34.2027C34.2032 20.5399 34.2034 20.5868 34.2034 20.6338C34.2034 27.6345 28.5281 33.3098 21.5274 33.3098C14.5266 33.3098 8.85127 27.6345 8.85127 20.6338C8.85127 20.6181 8.85127 20.6024 8.85143 20.5869L8.85127 15.986C8.85127 15.0007 8.0526 14.202 7.06723 14.202H1.4001C1.49125 14.8391 2.03907 15.3287 2.70126 15.3287H6.45728C7.15744 15.3287 7.72487 15.8962 7.72487 16.5963V20.5869C7.72487 20.6026 7.72487 20.6182 7.72487 20.6338C7.72487 28.2569 13.9046 34.4365 21.5277 34.4365C29.1508 34.4365 35.3304 28.2569 35.3304 20.6338C35.3304 20.4766 35.3278 20.3202 35.3226 20.1642H35.3307ZM32.8895 20.1642V17.6292C32.8895 17.0069 32.385 16.5025 31.7628 16.5025V20.4931H31.7616C31.7622 20.5399 31.7625 20.5869 31.7625 20.6339C31.7625 26.2865 27.1802 30.8686 21.5278 30.8686C15.8754 30.8686 11.2931 26.2863 11.2931 20.6339C11.2931 20.6182 11.2931 20.6026 11.2933 20.587L11.2931 15.986C11.2931 13.6525 9.40145 11.7606 7.0677 11.7606H1.4001C1.49125 12.3977 2.03907 12.8874 2.70126 12.8874H7.06755C8.77879 12.8874 10.1661 14.2746 10.1661 15.9859V20.5869C10.1661 20.59 10.1662 20.5932 10.1662 20.5964C10.1662 20.6043 10.1661 20.6122 10.1661 20.62V20.6338C10.1661 26.9085 15.2528 31.9953 21.5275 31.9953C27.8022 31.9953 32.8889 26.9087 32.8889 20.6338C32.8889 20.4764 32.8858 20.32 32.8793 20.1642H32.8895ZM30.4483 20.1644V17.6292C30.4483 17.0069 29.9438 16.5025 29.3216 16.5025V20.4931H29.3199C29.3207 20.5399 29.3211 20.5869 29.3211 20.6339C29.3211 24.9381 25.832 28.4274 21.5277 28.4274C17.2233 28.4274 13.7342 24.9382 13.7342 20.6339C13.7342 20.6182 13.7342 20.6026 13.7343 20.587L13.7342 15.6105C13.7342 12.1361 10.9176 9.31944 7.44312 9.31944H1.4001C1.49125 9.95653 2.03907 10.4461 2.70126 10.4461H7.06755C10.1272 10.4461 12.6075 12.9264 12.6075 15.986V20.587C12.6074 20.6027 12.6075 20.6182 12.6075 20.6339C12.6075 25.5604 16.6012 29.5541 21.5277 29.5541C26.4542 29.5541 30.4479 25.5604 30.4479 20.6339C30.4479 20.4764 30.4438 20.32 30.4358 20.1644H30.4483ZM28.0071 20.1644V17.6292C28.0071 17.0069 27.5026 16.5025 26.8804 16.5025V20.4931H26.8781C26.8793 20.5398 26.8799 20.5867 26.8799 20.6338C26.8799 23.5897 24.4838 25.9859 21.5278 25.9859C18.5719 25.9859 16.1757 23.5897 16.1757 20.6338V20.6065C16.1757 20.6022 16.1757 20.598 16.1759 20.5938V20.5867L16.1757 15.1409C16.1757 10.5775 12.4763 6.87807 7.91282 6.87807H1.4001C1.49125 7.51516 2.03907 8.00479 2.70126 8.00479H7.44312C11.6436 8.00479 15.0488 11.41 15.0488 15.6105V20.587C15.0486 20.6027 15.0488 20.6182 15.0488 20.6339C15.0488 24.212 17.9495 27.1128 21.5277 27.1128C25.1058 27.1128 28.0065 24.212 28.0065 20.6339C28.0065 20.4761 28.0008 20.3195 27.9897 20.1644H28.0071ZM25.5659 20.1642V17.6292C25.5659 17.0069 25.0613 16.5025 24.4392 16.5025V20.4931L24.4384 20.6339C24.4384 22.2415 23.1352 23.5447 21.5277 23.5447C19.9201 23.5447 18.6169 22.2415 18.6169 20.6339V14.9062C18.6169 9.12413 13.9295 4.43671 8.14735 4.43671H1.4001C1.49125 5.0738 2.03907 5.56342 2.70126 5.56342H7.9125C13.202 5.56342 17.49 9.85142 17.49 15.1409V20.5869C17.4898 20.6025 17.49 20.6182 17.49 20.6338C17.49 22.8637 19.2978 24.6714 21.5277 24.6714C23.7576 24.6714 25.5653 22.8637 25.5653 20.6338C25.5653 20.475 25.5562 20.3183 25.5383 20.1642H25.5659ZM37.3022 3.7091C37.3022 4.34431 37.8173 4.85934 38.4525 4.85934C39.0877 4.85934 39.6027 4.34431 39.6027 3.7091C39.6027 3.07389 39.0877 2.55886 38.4525 2.55886C37.8173 2.55886 37.3022 3.07389 37.3022 3.7091Z" fill="#CCCCCC"></path>
<path d="M66.7236 20.0719C66.7236 20.0899 66.7236 20.1079 66.7236 20.126C66.7416 20.126 66.7596 20.126 66.7777 20.126H77.3215V28.0744H55.5039C55.5039 26.9569 55.5039 25.8394 55.5039 24.722C55.5039 23.6045 55.5039 22.4871 55.5039 21.3696C55.5039 20.2341 55.5039 19.1076 55.5039 17.9902C55.5039 16.8727 55.5039 15.7552 55.5039 14.6378C55.5039 13.5023 55.5039 12.3668 55.5039 11.2313C55.5039 10.0778 55.5039 8.93333 55.5039 7.79785H66.7236C66.7236 8.82519 66.7236 9.85254 66.7236 10.8799C66.7236 11.8892 66.7236 12.9075 66.7236 13.9349C66.7236 14.9622 66.7236 15.9896 66.7236 17.0169C66.7236 18.0262 66.7236 19.0445 66.7236 20.0719Z" fill="#CCCCCC"></path>
<path d="M90.1055 28.8857C88.988 28.8857 87.9066 28.8046 86.8612 28.6424C85.8158 28.4802 84.8426 28.2369 83.9414 27.9125C83.0402 27.57 82.2201 27.1465 81.4812 26.6418C80.7422 26.1371 80.1114 25.5514 79.5887 24.8845C79.066 24.1996 78.6605 23.4336 78.3721 22.5865C78.0837 21.7214 77.9395 20.7661 77.9395 19.7207C77.9395 18.4951 78.1378 17.3957 78.5343 16.4224C78.9489 15.4311 79.5256 14.566 80.2646 13.827C81.0216 13.0881 81.9047 12.4752 82.9141 11.9886C83.9234 11.484 85.0318 11.1145 86.2394 10.8802C87.465 10.6278 88.7537 10.5017 90.1055 10.5017C91.7997 10.5017 93.3767 10.6999 94.8367 11.0964C96.3146 11.4749 97.6033 12.0517 98.7027 12.8267C99.8202 13.5837 100.694 14.539 101.325 15.6925C101.956 16.846 102.271 18.1887 102.271 19.7207C102.271 21.2527 101.956 22.5955 101.325 23.749C100.694 24.8845 99.8202 25.8397 98.7027 26.6148C97.6033 27.3717 96.3146 27.9395 94.8367 28.318C93.3767 28.6965 91.7997 28.8857 90.1055 28.8857ZM90.1325 21.7214C91.25 21.7214 92.043 21.5051 92.5116 21.0725C92.9802 20.6399 93.2145 20.1713 93.2145 19.6667C93.2145 19.4324 93.1605 19.198 93.0523 18.9637C92.9442 18.7294 92.773 18.5132 92.5386 18.3149C92.3043 18.1166 91.9889 17.9634 91.5924 17.8553C91.1959 17.7291 90.7093 17.666 90.1325 17.666C89.5557 17.666 89.0601 17.7291 88.6456 17.8553C88.249 17.9634 87.9246 18.1166 87.6723 18.3149C87.438 18.5132 87.2667 18.7294 87.1586 18.9637C87.0505 19.198 86.9964 19.4414 86.9964 19.6937C86.9964 19.946 87.0505 20.1984 87.1586 20.4507C87.2667 20.685 87.447 20.9013 87.6993 21.0995C87.9516 21.2798 88.2761 21.433 88.6726 21.5591C89.0691 21.6673 89.5557 21.7214 90.1325 21.7214Z" fill="#CCCCCC"></path>
<path d="M126.683 11.3127C126.683 13.4936 126.683 15.6834 126.683 17.8823C126.683 20.0812 126.683 22.2801 126.683 24.479C126.683 25.4522 126.458 26.3354 126.007 27.1284C125.557 27.9034 124.935 28.5883 124.142 29.1831C123.349 29.7959 122.43 30.3006 121.384 30.6971C120.339 31.0936 119.212 31.391 118.005 31.5893C116.797 31.8056 115.572 31.9137 114.328 31.9137C112.742 31.9137 111.174 31.7425 109.624 31.4C108.074 31.0576 106.686 30.5439 105.46 29.859V25.5604C105.983 25.9028 106.614 26.2182 107.353 26.5066C108.11 26.777 108.912 26.9933 109.759 27.1555C110.606 27.3177 111.444 27.3988 112.273 27.3988C112.958 27.3988 113.598 27.3357 114.193 27.2095C114.806 27.0653 115.346 26.8491 115.815 26.5607C116.284 26.2723 116.653 25.8938 116.923 25.4252C117.194 24.9566 117.329 24.3798 117.329 23.6949V18.6934C117.329 18.369 117.266 18.0896 117.14 17.8553C117.014 17.621 116.824 17.4317 116.572 17.2875C116.338 17.1253 116.058 17.0082 115.734 16.9361C115.409 16.846 115.049 16.8009 114.652 16.8009C114.112 16.8009 113.625 16.873 113.193 17.0172C112.778 17.1434 112.454 17.3416 112.219 17.612C111.985 17.8823 111.868 18.2158 111.868 18.6123C111.868 19.0268 111.985 19.3783 112.219 19.6667C112.472 19.955 112.805 20.1803 113.22 20.3425C113.634 20.4867 114.112 20.5588 114.652 20.5588C116.094 20.5588 116.987 20.0361 117.329 18.9908L115.707 25.3441C114.95 25.7947 114.202 26.065 113.463 26.1552C112.724 26.2453 111.976 26.2903 111.219 26.2903C110.12 26.2903 109.065 26.1191 108.056 25.7767C107.047 25.4162 106.145 24.9115 105.352 24.2627C104.577 23.5958 103.955 22.7938 103.487 21.8565C103.036 20.9013 102.811 19.8199 102.811 18.6123C102.811 17.8012 102.919 17.0532 103.135 16.3683C103.352 15.6834 103.658 15.0526 104.055 14.4759C104.451 13.8991 104.92 13.3945 105.46 12.9619C106.019 12.5113 106.623 12.1328 107.272 11.8264C107.939 11.52 108.642 11.2947 109.381 11.1505C110.138 10.9883 110.904 10.9072 111.679 10.9072C112.039 10.9072 112.427 10.9342 112.841 10.9883C113.256 11.0244 113.67 11.0964 114.085 11.2046C114.517 11.2947 114.932 11.4299 115.328 11.6101C115.725 11.7723 116.085 11.9796 116.41 12.2319C116.752 12.4662 117.041 12.7546 117.275 13.0971C117.293 13.1331 117.302 13.1511 117.302 13.1511C117.32 13.1511 117.329 13.1421 117.329 13.1241C117.329 13.1061 117.329 13.0881 117.329 13.07C117.329 12.8718 117.329 12.5834 117.329 12.2049C117.329 11.8084 117.329 11.511 117.329 11.3127H126.683Z" fill="#CCCCCC"></path>
<path d="M139.635 28.886C138.518 28.886 137.436 28.8049 136.391 28.6427C135.346 28.4805 134.372 28.2372 133.471 27.9128C132.57 27.5703 131.75 27.1468 131.011 26.6421C130.272 26.1374 129.641 25.5517 129.118 24.8848C128.596 24.1999 128.19 23.4339 127.902 22.5868C127.613 21.7217 127.469 20.7664 127.469 19.721C127.469 18.4954 127.667 17.396 128.064 16.4227C128.479 15.4314 129.055 14.5663 129.794 13.8273C130.551 13.0884 131.434 12.4755 132.444 11.9889C133.453 11.4843 134.561 11.1148 135.769 10.8805C136.995 10.6281 138.283 10.502 139.635 10.502C141.329 10.502 142.906 10.7002 144.366 11.0967C145.844 11.4752 147.133 12.052 148.232 12.827C149.35 13.584 150.224 14.5393 150.855 15.6928C151.486 16.8463 151.801 18.189 151.801 19.721C151.801 21.253 151.486 22.5958 150.855 23.7493C150.224 24.8848 149.35 25.84 148.232 26.6151C147.133 27.372 145.844 27.9398 144.366 28.3183C142.906 28.6968 141.329 28.886 139.635 28.886ZM139.662 21.7217C140.78 21.7217 141.573 21.5054 142.041 21.0728C142.51 20.6402 142.744 20.1716 142.744 19.667C142.744 19.4327 142.69 19.1983 142.582 18.964C142.474 18.7297 142.303 18.5135 142.068 18.3152C141.834 18.1169 141.519 17.9637 141.122 17.8556C140.726 17.7294 140.239 17.6663 139.662 17.6663C139.085 17.6663 138.59 17.7294 138.175 17.8556C137.779 17.9637 137.454 18.1169 137.202 18.3152C136.968 18.5135 136.796 18.7297 136.688 18.964C136.58 19.1983 136.526 19.4417 136.526 19.694C136.526 19.9463 136.58 20.1987 136.688 20.451C136.796 20.6853 136.977 20.9016 137.229 21.0998C137.481 21.2801 137.806 21.4333 138.202 21.5594C138.599 21.6676 139.085 21.7217 139.662 21.7217Z" fill="#CCCCCC"></path>
<path d="M152.609 28.0745C152.609 27.2454 152.609 26.4253 152.609 25.6142C152.609 24.7852 152.609 23.9651 152.609 23.154C152.609 22.3249 152.609 21.5049 152.609 20.6938C152.609 20.3514 152.609 20.0089 152.609 19.6665C152.609 19.324 152.609 18.9816 152.609 18.6391C153.654 18.6391 154.691 18.6391 155.718 18.6391C156.763 18.6391 157.809 18.6391 158.854 18.6391C159.9 18.6391 160.936 18.6391 161.963 18.6391C161.963 19.6845 161.963 20.7299 161.963 21.7752C161.963 22.8206 161.963 23.875 161.963 24.9384C161.963 25.9837 161.963 27.0291 161.963 28.0745H152.609ZM152.609 18.6391C152.609 17.4135 152.609 16.1879 152.609 14.9623C152.609 13.7367 152.609 12.5201 152.609 11.3125H161.963C161.963 11.9073 161.963 12.5021 161.963 13.0969C161.963 13.6916 161.963 14.2864 161.963 14.8812C161.963 15.476 161.963 16.0708 161.963 16.6655C161.963 16.6655 161.954 16.6745 161.936 16.6926C160.386 17.017 158.827 17.3414 157.259 17.6658C155.709 17.9903 154.159 18.3147 152.609 18.6391Z" fill="#CCCCCC"></path>
<path d="M188.182 19.6667C188.182 21.0184 187.902 22.235 187.344 23.3164C186.785 24.3979 186.028 25.3261 185.073 26.1011C184.135 26.8761 183.072 27.4709 181.882 27.8854C180.693 28.2819 179.458 28.4802 178.179 28.4802C177.53 28.4802 176.854 28.4171 176.151 28.2909C175.466 28.1828 174.799 28.0206 174.15 27.8043C173.519 27.57 172.952 27.2906 172.447 26.9662C172.447 26.9662 172.438 26.9662 172.42 26.9662C172.42 26.9662 172.411 26.9662 172.393 26.9662C172.393 26.9662 172.393 26.9752 172.393 26.9933V31.3189H163.039C163.039 30.2015 163.039 29.093 163.039 27.9936C163.039 26.8761 163.039 25.7676 163.039 24.6682C163.039 23.5507 163.039 22.4423 163.039 21.3429C163.039 20.2254 163.039 19.1169 163.039 18.0175C163.039 16.9 163.039 15.7916 163.039 14.6922C163.039 13.5747 163.039 12.4482 163.039 11.3127H172.393C172.393 12.268 172.393 13.2052 172.393 14.1244C172.393 15.0436 172.393 15.9628 172.393 16.882C172.393 17.8012 172.393 18.7475 172.393 19.7207C172.393 20.0632 172.483 20.3606 172.663 20.6129C172.844 20.8652 173.087 21.0725 173.393 21.2347C173.7 21.3969 174.042 21.5231 174.421 21.6132C174.817 21.6853 175.214 21.7214 175.61 21.7214C176.313 21.7214 176.89 21.6222 177.34 21.424C177.809 21.2257 178.151 20.9734 178.368 20.667C178.602 20.3606 178.719 20.0452 178.719 19.7207C178.719 19.4324 178.656 19.171 178.53 18.9367C178.404 18.6844 178.215 18.4681 177.962 18.2879C177.71 18.0896 177.385 17.9364 176.989 17.8283C176.592 17.7201 176.133 17.666 175.61 17.666C174.853 17.666 174.177 17.8012 173.582 18.0716C173.006 18.3419 172.618 18.7835 172.42 19.3963L174.583 11.3127C175.178 11.1685 175.763 11.0694 176.34 11.0153C176.917 10.9432 177.485 10.9072 178.043 10.9072C179.143 10.9072 180.197 11.0334 181.206 11.2857C182.234 11.538 183.162 11.9075 183.991 12.3941C184.838 12.8808 185.577 13.4846 186.208 14.2055C186.839 14.9084 187.325 15.7195 187.668 16.6387C188.01 17.5399 188.182 18.5492 188.182 19.6667Z" fill="#CCCCCC"></path>
<path d="M188.721 16.6657C188.721 15.6384 189.01 14.7462 189.586 13.9892C190.181 13.2322 190.983 12.6014 191.993 12.0968C193.002 11.5741 194.146 11.1866 195.426 10.9342C196.706 10.6819 198.039 10.5557 199.427 10.5557C201.14 10.5557 202.726 10.7089 204.186 11.0153C205.663 11.3217 206.997 11.7273 208.187 12.2319V18.5041C207.682 18.1256 207.015 17.8012 206.186 17.5309C205.375 17.2605 204.51 17.0532 203.591 16.9091C202.69 16.7649 201.833 16.6928 201.022 16.6928C200.482 16.6928 199.986 16.7288 199.535 16.8009C199.103 16.855 198.751 16.9451 198.481 17.0713C198.229 17.1974 198.103 17.3596 198.103 17.5579C198.103 17.666 198.139 17.7472 198.211 17.8012C198.301 17.8553 198.427 17.8913 198.589 17.9094C198.751 17.9274 198.959 17.9364 199.211 17.9364C199.626 17.9364 199.995 17.9364 200.319 17.9364C200.644 17.9364 201.004 17.9364 201.401 17.9364C202.302 17.9364 203.203 17.9995 204.104 18.1256C205.024 18.2338 205.853 18.4591 206.592 18.8015C207.349 19.144 207.952 19.6396 208.403 20.2885C208.854 20.9193 209.079 21.7574 209.079 22.8028C209.079 23.9022 208.773 24.8394 208.16 25.6144C207.565 26.3714 206.745 26.9933 205.699 27.4799C204.672 27.9485 203.51 28.291 202.212 28.5072C200.932 28.7235 199.598 28.8317 198.211 28.8317C196.571 28.8317 194.948 28.6785 193.344 28.3721C191.758 28.0657 190.397 27.6151 189.262 27.0203V20.4237C189.713 20.9103 190.352 21.3158 191.181 21.6402C192.029 21.9466 192.939 22.181 193.912 22.3432C194.903 22.4874 195.832 22.5594 196.697 22.5594C197.255 22.5594 197.76 22.5324 198.211 22.4783C198.661 22.4062 199.013 22.3071 199.265 22.181C199.535 22.0368 199.671 21.8565 199.671 21.6402C199.671 21.5501 199.644 21.487 199.589 21.451C199.535 21.415 199.445 21.3879 199.319 21.3699C199.211 21.3519 199.058 21.3429 198.86 21.3429C198.589 21.3429 198.31 21.3429 198.021 21.3429C197.733 21.3429 197.472 21.3429 197.237 21.3429C196.607 21.3429 195.904 21.3248 195.129 21.2888C194.372 21.2347 193.615 21.1356 192.858 20.9914C192.101 20.8292 191.407 20.5859 190.776 20.2614C190.163 19.919 189.667 19.4594 189.289 18.8826C188.911 18.2879 188.721 17.5489 188.721 16.6657Z" fill="#CCCCCC"></path>
<path d="M231.476 11.3125C231.476 12.5201 231.476 13.7367 231.476 14.9623C231.476 16.1879 231.476 17.4135 231.476 18.6391C231.476 19.6845 231.476 20.7389 231.476 21.8023C231.476 22.8476 231.476 23.893 231.476 24.9384C231.476 25.9837 231.476 27.0291 231.476 28.0745H222.122C222.122 27.3175 222.122 26.5515 222.122 25.7765C222.122 25.0014 222.122 24.2264 222.122 23.4514C222.122 22.6584 222.122 21.8924 222.122 21.1534C222.122 19.4772 222.122 17.8371 222.122 16.233C222.122 14.6108 222.122 12.9707 222.122 11.3125H231.476ZM219.256 11.3125C219.256 12.2678 219.256 13.232 219.256 14.2053C219.256 15.1606 219.256 16.1158 219.256 17.0711C219.256 18.0263 219.256 18.9906 219.256 19.9639C219.256 20.3604 219.319 20.6848 219.445 20.9371C219.589 21.1714 219.77 21.3427 219.986 21.4508C220.22 21.5409 220.464 21.586 220.716 21.586C220.968 21.586 221.221 21.5409 221.473 21.4508C221.743 21.3607 221.96 21.2525 222.122 21.1264L219.959 27.8041C219.454 28.0564 218.832 28.2637 218.094 28.4259C217.373 28.5881 216.616 28.6692 215.823 28.6692C215.102 28.6692 214.39 28.5791 213.687 28.3989C212.984 28.2367 212.344 27.9573 211.767 27.5608C211.209 27.1643 210.758 26.6416 210.415 25.9927C210.073 25.3439 209.902 24.5328 209.902 23.5596C209.902 22.2619 209.902 20.9642 209.902 19.6665C209.902 18.3688 209.902 17.0711 209.902 15.7734C209.902 15.0344 209.902 14.2954 209.902 13.5565C209.902 12.7995 209.902 12.0515 209.902 11.3125H219.256Z" fill="#CCCCCC"></path>
<path d="M232.555 28.0745C232.555 26.7948 232.555 25.5151 232.555 24.2354C232.555 22.9558 232.555 21.6761 232.555 20.3964C232.555 19.0987 232.555 17.81 232.555 16.5304C232.555 15.6472 232.555 14.7731 232.555 13.9079C232.555 13.0428 232.555 12.1777 232.555 11.3125H241.91C241.91 12.5021 241.91 13.6916 241.91 14.8812C241.91 16.0527 241.91 17.2333 241.91 18.4228C241.91 20.0269 241.91 21.64 241.91 23.2622C241.91 24.8663 241.91 26.4704 241.91 28.0745H232.555ZM244.938 28.0745C244.938 26.6686 244.938 25.2448 244.938 23.8029C244.938 22.361 244.938 20.9371 244.938 19.5313C244.938 19.0086 244.803 18.6391 244.532 18.4228C244.28 18.2066 243.973 18.0894 243.613 18.0714C243.252 18.0534 242.919 18.0984 242.613 18.2066C242.324 18.3147 242.144 18.4228 242.072 18.531L244.235 11.5829C245.551 11.0061 246.974 10.7178 248.506 10.7178C249.263 10.7178 249.984 10.8079 250.669 10.9881C251.354 11.1683 251.967 11.4477 252.508 11.8262C253.066 12.2047 253.499 12.7094 253.805 13.3402C254.13 13.953 254.292 14.692 254.292 15.5571C254.292 16.0798 254.292 16.6115 254.292 17.1522C254.292 17.6929 254.292 18.2246 254.292 18.7473C254.292 18.9996 254.292 19.2609 254.292 19.5313C254.292 19.7836 254.292 20.0359 254.292 20.2883C254.292 20.5406 254.292 20.8019 254.292 21.0723C254.292 22.2258 254.292 23.3883 254.292 24.5599C254.292 25.7314 254.292 26.9029 254.292 28.0745H244.938ZM257.158 28.0745C257.158 26.6686 257.158 25.2448 257.158 23.8029C257.158 22.361 257.158 20.9371 257.158 19.5313C257.158 19.0086 257.023 18.6391 256.752 18.4228C256.5 18.2066 256.193 18.0894 255.833 18.0714C255.472 18.0534 255.139 18.0984 254.833 18.2066C254.544 18.3147 254.364 18.4228 254.292 18.531L256.184 11.5829C256.833 11.2945 257.527 11.0782 258.266 10.934C259.023 10.7898 259.771 10.7178 260.51 10.7178C261.555 10.7178 262.529 10.88 263.43 11.2044C264.349 11.5288 265.088 12.0425 265.647 12.7454C266.224 13.4483 266.512 14.3856 266.512 15.5571V28.0745H257.158Z" fill="#CCCCCC"></path>
<path d="M271.237 7.48072C271.237 8.97752 270.023 10.1909 268.526 10.1909C267.03 10.1909 265.816 8.97752 265.816 7.48072C265.816 5.98391 267.03 4.77051 268.526 4.77051C270.023 4.77051 271.237 5.98391 271.237 7.48072Z" fill="#CCCCCC"></path>
</g>
<defs>
<clipPath id="svg-725368330_22757_clip0_14760_44">
<rect width="272" height="41" fill="white"></rect>
</clipPath>
</defs>
</svg>